Font-BoldItalic.ufo
<glyph name="quotedbl" format="1">
  <advance width="1024"/>
  <unicode hex="0022"/>
  <outline>
    <contour>
      <point x="220" y="872" type="line"/>
      <point x="339" y="872" type="line"/>
      <point x="508" y="1516" type="line"/>
      <point x="255" y="1516" type="line"/>
    </contour>
    <contour>
      <point x="573" y="872" type="line"/>
      <point x="692" y="872" type="line"/>
      <point x="883" y="1516" type="line"/>
      <point x="629" y="1516" type="line"/>
    </contour>
  </outline>
</glyph>
<glyph name="numbersign" format="1">
  <advance width="1430"/>
  <unicode hex="0023"/>
  <outline>
    <contour>
      <point x="93" y="0" type="line"/>
      <point x="299" y="0" type="line"/>
      <point x="466" y="478" type="line"/>
      <point x="723" y="478" type="line"/>
      <point x="553" y="0" type="line"/>
      <point x="759" y="0" type="line"/>
      <point x="925" y="478" type="line"/>
      <point x="1198" y="478" type="line"/>
      <point x="1223" y="618" type="line"/>
      <point x="975" y="618" type="line"/>
      <point x="1072" y="896" type="line"/>
      <point x="1296" y="896" type="line"/>
      <point x="1320" y="1036" type="line"/>
      <point x="1121" y="1036" type="line"/>
      <point x="1275" y="1477" type="line"/>
      <point x="1077" y="1477" type="line"/>
      <point x="920" y="1036" type="line"/>
      <point x="661" y="1036" type="line"/>
      <point x="815" y="1477" type="line"/>
      <point x="617" y="1477" type="line"/>
      <point x="460" y="1036" type="line"/>
      <point x="180" y="1036" type="line"/>
      <point x="156" y="896" type="line"/>
      <point x="412" y="896" type="line"/>
      <point x="313" y="618" type="line"/>
      <point x="83" y="618" type="line"/>
      <point x="58" y="478" type="line"/>
      <point x="263" y="478" type="line"/>
    </contour>
    <contour>
      <point x="515" y="618" type="line"/>
      <point x="612" y="896" type="line"/>
      <point x="871" y="896" type="line"/>
      <point x="772" y="618" type="line"/>
    </contour>
  </outline>
</glyph>
<glyph name="dollar" format="1">
  <advance width="1281"/>
  <unicode hex="0024"/>
  <outline>
    <contour>
      <point x="433" y="-312" type="line"/>
      <point x="543" y="-312" type="line"/>
      <point x="907" y="1758" type="line"/>
      <point x="797" y="1758" type="line"/>
    </contour>
    <component base="S"/>
  </outline>
</glyph>
<glyph name="ampersand" format="1">
  <advance width="1526"/>
  <unicode hex="0026"/>
  <outline>
    <contour>
      <point x="599" y="-27" type="curve" smooth="yes"/>
      <point x="852" y="-27"/>
      <point x="984" y="17"/>
      <point x="1074" y="103" type="curve"/>
      <point x="1180" y="-23" type="line"/>
      <point x="1370" y="150" type="line"/>
      <point x="1229" y="309" type="line"/>
      <point x="1257" y="367"/>
      <point x="1282" y="462"/>
      <point x="1297" y="549" type="curve" smooth="yes"/>
      <point x="1346" y="822" type="line"/>
      <point x="1111" y="822" type="line"/>
      <point x="1059" y="531" type="line" smooth="yes"/>
      <point x="1056" y="515"/>
      <point x="1056" y="514"/>
      <point x="1053" y="500" type="curve"/>
      <point x="675" y="951" type="line"/>
      <point x="615" y="1028"/>
      <point x="589" y="1059"/>
      <point x="589" y="1110" type="curve" smooth="yes"/>
      <point x="589" y="1122"/>
      <point x="590" y="1134"/>
      <point x="593" y="1149" type="curve" smooth="yes"/>
      <point x="610" y="1244"/>
      <point x="656" y="1305"/>
      <point x="859" y="1305" type="curve" smooth="yes"/>
      <point x="1018" y="1305"/>
      <point x="1079" y="1294"/>
      <point x="1079" y="1207" type="curve" smooth="yes"/>
      <point x="1079" y="1191"/>
      <point x="1077" y="1173"/>
      <point x="1073" y="1152" type="curve" smooth="yes"/>
      <point x="1065" y="1110" type="line"/>
      <point x="1303" y="1110" type="line"/>
      <point x="1318" y="1193" type="line" smooth="yes"/>
      <point x="1323" y="1222"/>
      <point x="1326" y="1249"/>
      <point x="1326" y="1273" type="curve" smooth="yes"/>
      <point x="1326" y="1446"/>
      <point x="1193" y="1506"/>
      <point x="886" y="1506" type="curve" smooth="yes"/>
      <point x="525" y="1506"/>
      <point x="373" y="1395"/>
      <point x="332" y="1165" type="curve" smooth="yes"/>
      <point x="327" y="1138"/>
      <point x="325" y="1112"/>
      <point x="325" y="1089" type="curve" smooth="yes"/>
      <point x="325" y="979"/>
      <point x="374" y="905"/>
      <point x="447" y="825" type="curve"/>
      <point x="242" y="767"/>
      <point x="134" y="661"/>
      <point x="99" y="460" type="curve" smooth="yes"/>
      <point x="89" y="403"/>
      <point x="84" y="352"/>
      <point x="84" y="306" type="curve" smooth="yes"/>
      <point x="84" y="68"/>
      <point x="227" y="-27"/>
    </contour>
    <contour>
      <point x="638" y="195" type="curve" smooth="yes"/>
      <point x="431" y="195"/>
      <point x="361" y="237"/>
      <point x="361" y="362" type="curve" smooth="yes"/>
      <point x="361" y="392"/>
      <point x="365" y="426"/>
      <point x="372" y="466" type="curve" smooth="yes"/>
      <point x="393" y="588"/>
      <point x="410" y="668"/>
      <point x="553" y="704" type="curve"/>
      <point x="912" y="279" type="line"/>
      <point x="862" y="198"/>
      <point x="747" y="195"/>
    </contour>
  </outline>
</glyph>
<glyph name="quotesingle" format="1">
  <advance width="769"/>
  <unicode hex="0027"/>
  <outline>
    <contour>
      <point x="280" y="872" type="line"/>
      <point x="399" y="872" type="line"/>
      <point x="568" y="1516" type="line"/>
      <point x="315" y="1516" type="line"/>
    </contour>
  </outline>
</glyph>
<glyph name="asterisk" format="1">
  <advance width="998"/>
  <unicode hex="002A"/>
  <outline>
    <contour>
      <point x="335" y="599" type="line"/>
      <point x="513" y="599" type="line"/>
      <point x="540" y="912" type="line"/>
      <point x="753" y="722" type="line"/>
      <point x="875" y="875" type="line"/>
      <point x="620" y="1017" type="line"/>
      <point x="932" y="1134" type="line"/>
      <point x="879" y="1295" type="line"/>
      <point x="575" y="1121" type="line"/>
      <point x="663" y="1446" type="line"/>
      <point x="485" y="1446" type="line"/>
      <point x="457" y="1133" type="line"/>
      <point x="244" y="1323" type="line"/>
      <point x="122" y="1170" type="line"/>
      <point x="377" y="1028" type="line"/>
      <point x="66" y="911" type="line"/>
      <point x="118" y="750" type="line"/>
      <point x="422" y="924" type="line"/>
    </contour>
  </outline>
</glyph>
<glyph name="comma" format="1">
  <advance width="768"/>
  <unicode hex="002C"/>
  <outline>
    <contour>
      <point x="290" y="-389" type="line"/>
      <point x="362" y="-333"/>
      <point x="529" y="-148"/>
      <point x="564" y="53" type="curve"/>
      <point x="604" y="276" type="line"/>
      <point x="282" y="276" type="line"/>
      <point x="233" y="0" type="line"/>
      <point x="398" y="0" type="line"/>
      <point x="374" y="-138"/>
      <point x="253" y="-285"/>
      <point x="191" y="-343" type="curve"/>
    </contour>
  </outline>
</glyph>
<glyph name="zero" format="1">
  <advance width="1420"/>
  <unicode hex="0030"/>
  <outline>
    <contour>
      <point x="625" y="205" type="curve" smooth="yes"/>
      <point x="452" y="205"/>
      <point x="401" y="317"/>
      <point x="401" y="428" type="curve" smooth="yes"/>
      <point x="401" y="452"/>
      <point x="404" y="477"/>
      <point x="408" y="500" type="curve" smooth="yes"/>
      <point x="491" y="972" type="line" smooth="yes"/>
      <point x="514" y="1102"/>
      <point x="593" y="1270"/>
      <point x="813" y="1270" type="curve" smooth="yes"/>
      <point x="986" y="1270"/>
      <point x="1031" y="1164"/>
      <point x="1031" y="1056" type="curve" smooth="yes"/>
      <point x="1031" y="1027"/>
      <point x="1028" y="999"/>
      <point x="1023" y="972" type="curve" smooth="yes"/>
      <point x="940" y="500" type="line" smooth="yes"/>
      <point x="917" y="371"/>
      <point x="837" y="205"/>
    </contour>
    <contour>
      <point x="585" y="-20" type="curve" smooth="yes"/>
      <point x="977" y="-20"/>
      <point x="1183" y="245"/>
      <point x="1230" y="509" type="curve" smooth="yes"/>
      <point x="1309" y="960" type="line" smooth="yes"/>
      <point x="1316" y="1000"/>
      <point x="1320" y="1040"/>
      <point x="1320" y="1079" type="curve" smooth="yes"/>
      <point x="1320" y="1304"/>
      <point x="1194" y="1496"/>
      <point x="853" y="1496" type="curve" smooth="yes"/>
      <point x="446" y="1496"/>
      <point x="238" y="1236"/>
      <point x="190" y="964" type="curve" smooth="yes"/>
      <point x="109" y="505" type="line" smooth="yes"/>
      <point x="103" y="469"/>
      <point x="99" y="434"/>
      <point x="99" y="399" type="curve" smooth="yes"/>
      <point x="99" y="173"/>
      <point x="237" y="-20"/>
    </contour>
  </outline>
</glyph>
<glyph name="one" format="1">
  <advance width="1379"/>
  <unicode hex="0031"/>
  <outline>
    <contour>
      <point x="119" y="0" type="line"/>
      <point x="1103" y="0" type="line"/>
      <point x="1140" y="209" type="line"/>
      <point x="814" y="209" type="line"/>
      <point x="1037" y="1476" type="line"/>
      <point x="832" y="1476" type="line"/>
      <point x="362" y="1404" type="line"/>
      <point x="350" y="1187" type="line"/>
      <point x="699" y="1241" type="line"/>
      <point x="517" y="209" type="line"/>
      <point x="156" y="209" type="line"/>
    </contour>
  </outline>
</glyph>
<glyph name="six" format="1">
  <advance width="1379"/>
  <unicode hex="0036"/>
  <outline>
    <contour>
      <point x="579" y="-20" type="curve" smooth="yes"/>
      <point x="962" y="-20"/>
      <point x="1216" y="206"/>
      <point x="1216" y="593" type="curve" smooth="yes"/>
      <point x="1216" y="839"/>
      <point x="1069" y="930"/>
      <point x="803" y="930" type="curve"/>
      <point x="773" y="930"/>
      <point x="680" y="915"/>
      <point x="642" y="904" type="curve"/>
      <point x="1065" y="1477" type="line"/>
      <point x="745" y="1477" type="line"/>
      <point x="365" y="965" type="line"/>
      <point x="260" y="816"/>
      <point x="174" y="650"/>
      <point x="140" y="459" type="curve" smooth="yes"/>
      <point x="134" y="424"/>
      <point x="131" y="390"/>
      <point x="131" y="358" type="curve" smooth="yes"/>
      <point x="131" y="122"/>
      <point x="296" y="-20"/>
    </contour>
    <contour>
      <point x="939" y="539" type="curve" smooth="yes"/>
      <point x="939" y="333"/>
      <point x="810" y="199"/>
      <point x="632" y="199" type="curve" smooth="yes"/>
      <point x="497" y="199"/>
      <point x="419" y="275"/>
      <point x="419" y="399" type="curve" smooth="yes"/>
      <point x="419" y="418"/>
      <point x="420" y="437"/>
      <point x="424" y="458" type="curve" smooth="yes"/>
      <point x="454" y="629"/>
      <point x="546" y="726"/>
      <point x="721" y="726" type="curve" smooth="yes"/>
      <point x="880" y="726"/>
      <point x="939" y="656"/>
    </contour>
  </outline>
</glyph>
<glyph name="seven" format="1">
  <advance width="1379"/>
  <unicode hex="0037"/>
  <outline>
    <contour>
      <point x="224" y="0" type="line"/>
      <point x="538" y="0" type="line"/>
      <point x="1316" y="1270" type="line"/>
      <point x="1352" y="1476" type="line"/>
      <point x="354" y="1476" type="line"/>
      <point x="313" y="1244" type="line"/>
      <point x="987" y="1244" type="line"/>
    </contour>
  </outline>
</glyph>
<glyph name="eight" format="1">
  <advance width="1379"/>
  <unicode hex="0038"/>
  <outline>
    <contour>
      <point x="553" y="-20" type="curve" smooth="yes"/>
      <point x="906" y="-20"/>
      <point x="1127" y="119"/>
      <point x="1172" y="374" type="curve" smooth="yes"/>
      <point x="1177" y="400"/>
      <point x="1179" y="425"/>
      <point x="1179" y="450" type="curve" smooth="yes"/>
      <point x="1179" y="592"/>
      <point x="1100" y="710"/>
      <point x="912" y="783" type="curve"/>
      <point x="1129" y="848"/>
      <point x="1242" y="982"/>
      <point x="1268" y="1128" type="curve" smooth="yes"/>
      <point x="1272" y="1152"/>
      <point x="1274" y="1176"/>
      <point x="1274" y="1199" type="curve" smooth="yes"/>
      <point x="1274" y="1369"/>
      <point x="1151" y="1496"/>
      <point x="823" y="1496" type="curve" smooth="yes"/>
      <point x="454" y="1496"/>
      <point x="276" y="1335"/>
      <point x="241" y="1134" type="curve" smooth="yes"/>
      <point x="237" y="1111"/>
      <point x="235" y="1088"/>
      <point x="235" y="1066" type="curve" smooth="yes"/>
      <point x="235" y="939"/>
      <point x="306" y="838"/>
      <point x="465" y="783" type="curve"/>
      <point x="254" y="697"/>
      <point x="115" y="571"/>
      <point x="79" y="372" type="curve" smooth="yes"/>
      <point x="75" y="347"/>
      <point x="73" y="324"/>
      <point x="73" y="301" type="curve" smooth="yes"/>
      <point x="73" y="98"/>
      <point x="245" y="-20"/>
    </contour>
    <contour>
      <point x="593" y="193" type="curve" smooth="yes"/>
      <point x="413" y="193"/>
      <point x="352" y="261"/>
      <point x="352" y="350" type="curve" smooth="yes"/>
      <point x="352" y="363"/>
      <point x="354" y="377"/>
      <point x="356" y="391" type="curve" smooth="yes"/>
      <point x="375" y="502"/>
      <point x="478" y="592"/>
      <point x="676" y="672" type="curve"/>
      <point x="829" y="600"/>
      <point x="901" y="521"/>
      <point x="901" y="426" type="curve" smooth="yes"/>
      <point x="901" y="415"/>
      <point x="900" y="403"/>
      <point x="898" y="391" type="curve" smooth="yes"/>
      <point x="879" y="283"/>
      <point x="799" y="193"/>
    </contour>
    <contour>
      <point x="711" y="869" type="curve"/>
      <point x="575" y="940"/>
      <point x="514" y="995"/>
      <point x="514" y="1081" type="curve" smooth="yes"/>
      <point x="514" y="1093"/>
      <point x="516" y="1106"/>
      <point x="518" y="1119" type="curve" smooth="yes"/>
      <point x="535" y="1217"/>
      <point x="602" y="1289"/>
      <point x="786" y="1289" type="curve" smooth="yes"/>
      <point x="945" y="1289"/>
      <point x="995" y="1232"/>
      <point x="995" y="1157" type="curve" smooth="yes"/>
      <point x="995" y="1145"/>
      <point x="993" y="1132"/>
      <point x="991" y="1119" type="curve" smooth="yes"/>
      <point x="973" y="1015"/>
      <point x="887" y="950"/>
    </contour>
  </outline>
</glyph>
<glyph name="equal" format="1">
  <advance width="880"/>
  <unicode hex="003D"/>
  <outline>
    <contour>
      <point x="64" y="371" type="line"/>
      <point x="720" y="371" type="line"/>
      <point x="751" y="544" type="line"/>
      <point x="95" y="544" type="line"/>
    </contour>
    <contour>
      <point x="129" y="740" type="line"/>
      <point x="785" y="740" type="line"/>
      <point x="816" y="913" type="line"/>
      <point x="160" y="913" type="line"/>
    </contour>
  </outline>
</glyph>
<glyph name="greater" format="1">
  <advance width="1024"/>
  <unicode hex="003E"/>
  <outline>
    <contour>
      <point x="59" y="31" type="line"/>
      <point x="877" y="446" type="line"/>
      <point x="915" y="665" type="line"/>
      <point x="245" y="1081" type="line"/>
      <point x="203" y="848" type="line"/>
      <point x="715" y="556" type="line"/>
      <point x="100" y="260" type="line"/>
    </contour>
  </outline>
</glyph>
<glyph name="question" format="1">
  <advance width="1244"/>
  <unicode hex="003F"/>
  <outline>
    <contour>
      <point x="389" y="431" type="line"/>
      <point x="618" y="431" type="line"/>
      <point x="826" y="582" type="line" smooth="yes"/>
      <point x="1035" y="733"/>
      <point x="1138" y="862"/>
      <point x="1174" y="1067" type="curve" smooth="yes"/>
      <point x="1181" y="1109"/>
      <point x="1186" y="1150"/>
      <point x="1186" y="1190" type="curve" smooth="yes"/>
      <point x="1186" y="1361"/>
      <point x="1098" y="1501"/>
      <point x="751" y="1501" type="curve" smooth="yes"/>
      <point x="318" y="1501"/>
      <point x="228" y="1309"/>
      <point x="180" y="1036" type="curve" smooth="yes"/>
      <point x="167" y="962" type="line"/>
      <point x="441" y="962" type="line"/>
      <point x="456" y="1047" type="line" smooth="yes"/>
      <point x="481" y="1188"/>
      <point x="510" y="1279"/>
      <point x="712" y="1279" type="curve" smooth="yes"/>
      <point x="854" y="1279"/>
      <point x="888" y="1214"/>
      <point x="888" y="1134" type="curve" smooth="yes"/>
      <point x="888" y="1109"/>
      <point x="885" y="1082"/>
      <point x="880" y="1056" type="curve" smooth="yes"/>
      <point x="859" y="936"/>
      <point x="808" y="860"/>
      <point x="691" y="740" type="curve" smooth="yes"/>
    </contour>
    <contour>
      <point x="297" y="0" type="line"/>
      <point x="546" y="0" type="line"/>
      <point x="589" y="245" type="line"/>
      <point x="340" y="245" type="line"/>
    </contour>
  </outline>
</glyph>
<glyph name="B" format="1">
  <advance width="1492"/>
  <unicode hex="0042"/>
  <outline>
    <contour>
      <point x="82" y="0" type="line"/>
      <point x="722" y="0" type="line" smooth="yes"/>
      <point x="1080" y="0"/>
      <point x="1259" y="133"/>
      <point x="1311" y="428" type="curve"/>
      <point x="1320" y="475"/>
      <point x="1328" y="531"/>
      <point x="1328" y="575" type="curve" smooth="yes"/>
      <point x="1328" y="699"/>
      <point x="1278" y="783"/>
      <point x="1126" y="804" type="curve"/>
      <point x="1287" y="843"/>
      <point x="1337" y="938"/>
      <point x="1365" y="1088" type="curve" smooth="yes"/>
      <point x="1372" y="1129"/>
      <point x="1376" y="1167"/>
      <point x="1376" y="1201" type="curve" smooth="yes"/>
      <point x="1376" y="1388"/>
      <point x="1259" y="1476"/>
      <point x="910" y="1476" type="curve" smooth="yes"/>
      <point x="342" y="1476" type="line"/>
    </contour>
    <contour>
      <point x="416" y="208" type="line"/>
      <point x="503" y="703" type="line"/>
      <point x="821" y="703" type="line" smooth="yes"/>
      <point x="988" y="703"/>
      <point x="1031" y="646"/>
      <point x="1031" y="555" type="curve" smooth="yes"/>
      <point x="1031" y="525"/>
      <point x="1026" y="491"/>
      <point x="1020" y="455" type="curve" smooth="yes"/>
      <point x="984" y="250"/>
      <point x="935" y="208"/>
      <point x="704" y="208" type="curve" smooth="yes"/>
    </contour>
    <contour>
      <point x="534" y="882" type="line"/>
      <point x="603" y="1273" type="line"/>
      <point x="855" y="1273" type="line" smooth="yes"/>
      <point x="1017" y="1273"/>
      <point x="1070" y="1252"/>
      <point x="1070" y="1163" type="curve" smooth="yes"/>
      <point x="1070" y="1141"/>
      <point x="1066" y="1115"/>
      <point x="1061" y="1085" type="curve" smooth="yes"/>
      <point x="1038" y="952"/>
      <point x="1014" y="882"/>
      <point x="841" y="882" type="curve" smooth="yes"/>
    </contour>
    <contour>
      <point x="879" y="1476" type="move" name="top"/>
    </contour>
  </outline>
</glyph>
<glyph name="C" format="1">
  <advance width="1509"/>
  <unicode hex="0043"/>
  <outline>
    <contour>
      <point x="653" y="-26" type="curve" smooth="yes"/>
      <point x="1165" y="-26"/>
      <point x="1273" y="190"/>
      <point x="1325" y="480" type="curve"/>
      <point x="1329" y="507" type="line"/>
      <point x="1038" y="507" type="line"/>
      <point x="1030" y="460" type="line"/>
      <point x="993" y="250"/>
      <point x="920" y="207"/>
      <point x="695" y="207" type="curve" smooth="yes"/>
      <point x="504" y="207"/>
      <point x="408" y="241"/>
      <point x="408" y="379" type="curve" smooth="yes"/>
      <point x="408" y="401"/>
      <point x="410" y="426"/>
      <point x="415" y="454" type="curve" smooth="yes"/>
      <point x="513" y="1012" type="line" smooth="yes"/>
      <point x="549" y="1215"/>
      <point x="662" y="1268"/>
      <point x="882" y="1268" type="curve" smooth="yes"/>
      <point x="1065" y="1268"/>
      <point x="1137" y="1232"/>
      <point x="1137" y="1106" type="curve" smooth="yes"/>
      <point x="1137" y="1078"/>
      <point x="1133" y="1044"/>
      <point x="1126" y="1006" type="curve" smooth="yes"/>
      <point x="1113" y="931" type="line"/>
      <point x="1410" y="965" type="line"/>
      <point x="1421" y="1028"/>
      <point x="1431" y="1096"/>
      <point x="1431" y="1154" type="curve" smooth="yes"/>
      <point x="1431" y="1361"/>
      <point x="1324" y="1501"/>
      <point x="923" y="1501" type="curve" smooth="yes"/>
      <point x="394" y="1501"/>
      <point x="263" y="1275"/>
      <point x="210" y="977" type="curve" smooth="yes"/>
      <point x="123" y="484" type="line" smooth="yes"/>
      <point x="114" y="431"/>
      <point x="108" y="380"/>
      <point x="108" y="332" type="curve" smooth="yes"/>
      <point x="108" y="120"/>
      <point x="223" y="-26"/>
    </contour>
    <contour>
      <point x="635" y="0" type="move" name="bot"/>
    </contour>
    <contour>
      <point x="918" y="1476" type="move" name="top"/>
    </contour>
  </outline>
</glyph>
<glyph name="L" format="1">
  <advance width="1194"/>
  <unicode hex="004C"/>
  <outline>
    <contour>
      <point x="82" y="0" type="line"/>
      <point x="996" y="0" type="line"/>
      <point x="1037" y="232" type="line"/>
      <point x="420" y="232" type="line"/>
      <point x="639" y="1476" type="line"/>
      <point x="342" y="1476" type="line"/>
    </contour>
    <contour>
      <point x="438" y="811" type="move" name="mid"/>
    </contour>
    <contour>
      <point x="527" y="0" type="move" name="bot"/>
    </contour>
    <contour>
      <point x="574" y="1476" type="move" name="top"/>
    </contour>
  </outline>
</glyph>
<glyph name="O" format="1">
  <advance width="1622"/>
  <unicode hex="004F"/>
  <outline>
    <contour>
      <point x="728" y="207" type="curve" smooth="yes"/>
      <point x="531" y="207"/>
      <point x="412" y="253"/>
      <point x="412" y="405" type="curve" smooth="yes"/>
      <point x="412" y="424"/>
      <point x="414" y="445"/>
      <point x="418" y="468" type="curve" smooth="yes"/>
      <point x="513" y="1003" type="line" smooth="yes"/>
      <point x="548" y="1205"/>
      <point x="696" y="1268"/>
      <point x="916" y="1268" type="curve" smooth="yes"/>
      <point x="1109" y="1268"/>
      <point x="1210" y="1217"/>
      <point x="1210" y="1074" type="curve" smooth="yes"/>
      <point x="1210" y="1052"/>
      <point x="1208" y="1029"/>
      <point x="1203" y="1003" type="curve" smooth="yes"/>
      <point x="1108" y="468" type="line" smooth="yes"/>
      <point x="1073" y="266"/>
      <point x="952" y="207"/>
    </contour>
    <contour>
      <point x="687" y="-26" type="curve" smooth="yes"/>
      <point x="1195" y="-26"/>
      <point x="1364" y="227"/>
      <point x="1415" y="517" type="curve" smooth="yes"/>
      <point x="1491" y="948" type="line" smooth="yes"/>
      <point x="1500" y="999"/>
      <point x="1505" y="1049"/>
      <point x="1505" y="1096" type="curve" smooth="yes"/>
      <point x="1505" y="1326"/>
      <point x="1380" y="1501"/>
      <point x="957" y="1501" type="curve"/>
      <point x="424" y="1501"/>
      <point x="260" y="1262"/>
      <point x="208" y="963" type="curve"/>
      <point x="126" y="501" type="line" smooth="yes"/>
      <point x="118" y="454"/>
      <point x="113" y="408"/>
      <point x="113" y="365" type="curve" smooth="yes"/>
      <point x="113" y="140"/>
      <point x="242" y="-26"/>
    </contour>
    <contour>
      <point x="753" y="0" type="move" name="ogonek"/>
    </contour>
    <contour>
      <point x="952" y="1476" type="move" name="top"/>
    </contour>
  </outline>
</glyph>
<glyph name="R" format="1">
  <advance width="1524"/>
  <unicode hex="0052"/>
  <outline>
    <contour>
      <point x="82" y="0" type="line"/>
      <point x="379" y="0" type="line"/>
      <point x="482" y="583" type="line"/>
      <point x="816" y="583" type="line"/>
      <point x="972" y="0" type="line"/>
      <point x="1280" y="0" type="line"/>
      <point x="1105" y="626" type="line"/>
      <point x="1298" y="699"/>
      <point x="1362" y="853"/>
      <point x="1394" y="1035" type="curve" smooth="yes"/>
      <point x="1402" y="1081"/>
      <point x="1407" y="1125"/>
      <point x="1407" y="1165" type="curve" smooth="yes"/>
      <point x="1407" y="1356"/>
      <point x="1303" y="1476"/>
      <point x="979" y="1476" type="curve" smooth="yes"/>
      <point x="342" y="1476" type="line"/>
    </contour>
    <contour>
      <point x="519" y="795" type="line"/>
      <point x="602" y="1265" type="line"/>
      <point x="979" y="1265" type="line" smooth="yes"/>
      <point x="1087" y="1265"/>
      <point x="1117" y="1198"/>
      <point x="1117" y="1115" type="curve" smooth="yes"/>
      <point x="1117" y="1085"/>
      <point x="1114" y="1054"/>
      <point x="1108" y="1022" type="curve" smooth="yes"/>
      <point x="1086" y="896"/>
      <point x="1036" y="795"/>
      <point x="884" y="795" type="curve" smooth="yes"/>
    </contour>
    <contour>
      <point x="673" y="0" type="move" name="bot"/>
    </contour>
    <contour>
      <point x="848" y="1476" type="move" name="top"/>
    </contour>
  </outline>
</glyph>
<glyph name="W" format="1">
  <advance width="2014"/>
  <unicode hex="0057"/>
  <outline>
    <contour>
      <point x="317" y="0" type="line"/>
      <point x="583" y="0" type="line"/>
      <point x="1059" y="1053" type="line"/>
      <point x="1189" y="0" type="line"/>
      <point x="1438" y="0" type="line"/>
      <point x="2074" y="1476" type="line"/>
      <point x="1792" y="1476" type="line"/>
      <point x="1386" y="466" type="line"/>
      <point x="1251" y="1476" type="line"/>
      <point x="1002" y="1476" type="line"/>
      <point x="550" y="455" type="line"/>
      <point x="481" y="1476" type="line"/>
      <point x="200" y="1476" type="line"/>
    </contour>
    <contour>
      <point x="1126" y="1476" type="move" name="top"/>
    </contour>
  </outline>
</glyph>
<glyph name="X" format="1">
  <advance width="1352"/>
  <unicode hex="0058"/>
  <outline>
    <contour>
      <point x="-92" y="0" type="line"/>
      <point x="218" y="0" type="line"/>
      <point x="627" y="501" type="line"/>
      <point x="857" y="0" type="line"/>
      <point x="1184" y="0" type="line"/>
      <point x="832" y="749" type="line"/>
      <point x="1427" y="1476" type="line"/>
      <point x="1099" y="1476" type="line"/>
      <point x="715" y="997" type="line"/>
      <point x="489" y="1476" type="line"/>
      <point x="180" y="1476" type="line"/>
      <point x="515" y="748" type="line"/>
    </contour>
  </outline>
</glyph>
<glyph name="Z" format="1">
  <advance width="1222"/>
  <unicode hex="005A"/>
  <outline>
    <contour>
      <point x="-8" y="0" type="line"/>
      <point x="1010" y="0" type="line"/>
      <point x="1047" y="210" type="line"/>
      <point x="375" y="210" type="line"/>
      <point x="1227" y="1297" type="line"/>
      <point x="1258" y="1476" type="line"/>
      <point x="277" y="1476" type="line"/>
      <point x="239" y="1258" type="line"/>
      <point x="876" y="1258" type="line"/>
      <point x="23" y="177" type="line"/>
    </contour>
    <contour>
      <point x="824" y="1476" type="move" name="top"/>
    </contour>
  </outline>
</glyph>
<glyph name="bracketleft" format="1">
  <advance width="842"/>
  <unicode hex="005B"/>
  <outline>
    <contour>
      <point x="64" y="-89" type="line"/>
      <point x="546" y="-89" type="line"/>
      <point x="574" y="72" type="line"/>
      <point x="365" y="72" type="line"/>
      <point x="605" y="1431" type="line"/>
      <point x="814" y="1431" type="line"/>
      <point x="842" y="1592" type="line"/>
      <point x="360" y="1592" type="line"/>
    </contour>
  </outline>
</glyph>
<glyph name="underscore" format="1">
  <advance width="904"/>
  <unicode hex="005F"/>
  <outline>
    <contour>
      <point x="-7" y="-32" type="line"/>
      <point x="876" y="-32" type="line"/>
      <point x="906" y="143" type="line"/>
      <point x="23" y="143" type="line"/>
    </contour>
  </outline>
</glyph>
<glyph name="grave" format="1">
  <advance width="556"/>
  <unicode hex="0060"/>
  <outline>
    <contour>
      <point x="108" y="1583" type="line"/>
      <point x="277" y="1218" type="line"/>
      <point x="426" y="1218" type="line"/>
      <point x="376" y="1583" type="line"/>
    </contour>
    <contour>
      <point x="339" y="1074" type="move" name="_top"/>
    </contour>
  </outline>
</glyph>
<glyph name="a" format="1">
  <advance width="1174"/>
  <unicode hex="0061"/>
  <outline>
    <contour>
      <point x="324" y="-23" type="curve" smooth="yes"/>
      <point x="481" y="-23"/>
      <point x="604" y="35"/>
      <point x="685" y="130" type="curve"/>
      <point x="702" y="43"/>
      <point x="758" y="-8"/>
      <point x="917" y="-8" type="curve" smooth="yes"/>
      <point x="1009" y="-8" type="line"/>
      <point x="1055" y="190" type="line"/>
      <point x="981" y="190"/>
      <point x="956" y="201"/>
      <point x="956" y="249" type="curve" smooth="yes"/>
      <point x="956" y="264"/>
      <point x="959" y="284"/>
      <point x="963" y="308" type="curve" smooth="yes"/>
      <point x="1038" y="733" type="line" smooth="yes"/>
      <point x="1044" y="766"/>
      <point x="1047" y="797"/>
      <point x="1047" y="826" type="curve" smooth="yes"/>
      <point x="1047" y="994"/>
      <point x="945" y="1097"/>
      <point x="671" y="1097" type="curve" smooth="yes"/>
      <point x="377" y="1097"/>
      <point x="219" y="963"/>
      <point x="182" y="755" type="curve"/>
      <point x="177" y="723" type="line"/>
      <point x="432" y="723" type="line"/>
      <point x="439" y="765" type="line"/>
      <point x="454" y="848"/>
      <point x="495" y="907"/>
      <point x="631" y="907" type="curve" smooth="yes"/>
      <point x="737" y="907"/>
      <point x="783" y="883"/>
      <point x="783" y="820" type="curve" smooth="yes"/>
      <point x="783" y="722"/>
      <point x="735" y="694"/>
      <point x="674" y="673" type="curve" smooth="yes"/>
      <point x="463" y="602" type="line" smooth="yes"/>
      <point x="196" y="512"/>
      <point x="90" y="415"/>
      <point x="66" y="278" type="curve" smooth="yes"/>
      <point x="62" y="256"/>
      <point x="60" y="234"/>
      <point x="60" y="214" type="curve" smooth="yes"/>
      <point x="60" y="67"/>
      <point x="160" y="-23"/>
    </contour>
    <contour>
      <point x="428" y="161" type="curve" smooth="yes"/>
      <point x="371" y="161"/>
      <point x="326" y="186"/>
      <point x="326" y="256" type="curve" smooth="yes"/>
      <point x="326" y="266"/>
      <point x="327" y="277"/>
      <point x="329" y="289" type="curve" smooth="yes"/>
      <point x="341" y="353"/>
      <point x="390" y="407"/>
      <point x="504" y="449" type="curve" smooth="yes"/>
      <point x="734" y="533" type="line"/>
      <point x="691" y="289" type="line"/>
      <point x="624" y="207"/>
      <point x="492" y="161"/>
    </contour>
    <contour>
      <point x="912" y="0" type="move" name="ogonek"/>
    </contour>
    <contour>
      <point x="689" y="1074" type="move" name="top"/>
    </contour>
  </outline>
</glyph>
<glyph name="b" format="1">
  <advance width="1232"/>
  <unicode hex="0062"/>
  <outline>
    <contour>
      <point x="529" y="-23" type="curve" smooth="yes"/>
      <point x="790" y="-23"/>
      <point x="982" y="120"/>
      <point x="1018" y="329" type="curve" smooth="yes"/>
      <point x="1093" y="753" type="line" smooth="yes"/>
      <point x="1097" y="777"/>
      <point x="1100" y="802"/>
      <point x="1100" y="825" type="curve" smooth="yes"/>
      <point x="1100" y="975"/>
      <point x="1005" y="1097"/>
      <point x="744" y="1097" type="curve" smooth="yes"/>
      <point x="654" y="1097"/>
      <point x="565" y="1074"/>
      <point x="494" y="1040" type="curve"/>
      <point x="578" y="1516" type="line"/>
      <point x="306" y="1516" type="line"/>
      <point x="38" y="0" type="line"/>
      <point x="225" y="0" type="line"/>
      <point x="264" y="65" type="line"/>
      <point x="325" y="19"/>
      <point x="412" y="-23"/>
    </contour>
    <contour>
      <point x="518" y="168" type="curve" smooth="yes"/>
      <point x="445" y="168"/>
      <point x="384" y="185"/>
      <point x="348" y="216" type="curve"/>
      <point x="461" y="857" type="line"/>
      <point x="484" y="867"/>
      <point x="563" y="907"/>
      <point x="661" y="907" type="curve" smooth="yes"/>
      <point x="767" y="907"/>
      <point x="826" y="875"/>
      <point x="826" y="795" type="curve" smooth="yes"/>
      <point x="826" y="784"/>
      <point x="824" y="771"/>
      <point x="822" y="758" type="curve" smooth="yes"/>
      <point x="745" y="323" type="line" smooth="yes"/>
      <point x="726" y="215"/>
      <point x="635" y="168"/>
    </contour>
    <contour>
      <point x="760" y="1074" type="move" name="top"/>
    </contour>
  </outline>
</glyph>
<glyph name="d" format="1">
  <advance width="1228"/>
  <unicode hex="0064"/>
  <outline>
    <contour>
      <point x="431" y="-23" type="curve" smooth="yes"/>
      <point x="541" y="-23"/>
      <point x="646" y="14"/>
      <point x="724" y="63" type="curve"/>
      <point x="742" y="0" type="line"/>
      <point x="926" y="0" type="line"/>
      <point x="1194" y="1516" type="line"/>
      <point x="922" y="1516" type="line"/>
      <point x="841" y="1059" type="line"/>
      <point x="782" y="1082"/>
      <point x="709" y="1097"/>
      <point x="648" y="1097" type="curve" smooth="yes"/>
      <point x="335" y="1097"/>
      <point x="176" y="951"/>
      <point x="141" y="753" type="curve" smooth="yes"/>
      <point x="66" y="324" type="line" smooth="yes"/>
      <point x="61" y="297"/>
      <point x="59" y="271"/>
      <point x="59" y="246" type="curve" smooth="yes"/>
      <point x="59" y="77"/>
      <point x="177" y="-23"/>
    </contour>
    <contour>
      <point x="497" y="168" type="curve" smooth="yes"/>
      <point x="392" y="168"/>
      <point x="333" y="201"/>
      <point x="333" y="283" type="curve" smooth="yes"/>
      <point x="333" y="294"/>
      <point x="335" y="307"/>
      <point x="337" y="320" type="curve" smooth="yes"/>
      <point x="414" y="759" type="line" smooth="yes"/>
      <point x="433" y="868"/>
      <point x="513" y="907"/>
      <point x="637" y="907" type="curve" smooth="yes"/>
      <point x="713" y="907"/>
      <point x="775" y="887"/>
      <point x="808" y="870" type="curve"/>
      <point x="692" y="211" type="line"/>
      <point x="645" y="186"/>
      <point x="572" y="168"/>
    </contour>
    <contour>
      <point x="1026" y="1313" type="move" name="mid"/>
    </contour>
    <contour>
      <point x="1017" y="1074" type="move" name="caron.alt"/>
    </contour>
    <contour>
      <point x="606" y="1074" type="move" name="top"/>
    </contour>
  </outline>
</glyph>
<glyph name="f" format="1">
  <advance width="778"/>
  <unicode hex="0066"/>
  <outline>
    <contour>
      <point x="95" y="0" type="line"/>
      <point x="367" y="0" type="line"/>
      <point x="526" y="901" type="line"/>
      <point x="740" y="901" type="line"/>
      <point x="771" y="1074" type="line"/>
      <point x="557" y="1074" type="line"/>
      <point x="576" y="1186" type="line" smooth="yes"/>
      <point x="589" y="1258"/>
      <point x="622" y="1327"/>
      <point x="740" y="1327" type="curve" smooth="yes"/>
      <point x="824" y="1327" type="line"/>
      <point x="851" y="1516" type="line"/>
      <point x="725" y="1516" type="line" smooth="yes"/>
      <point x="470" y="1516"/>
      <point x="339" y="1380"/>
      <point x="294" y="1125" type="curve" smooth="yes"/>
      <point x="285" y="1074" type="line"/>
      <point x="142" y="1074" type="line"/>
      <point x="111" y="901" type="line"/>
      <point x="254" y="901" type="line"/>
    </contour>
    <contour>
      <point x="549" y="1476" type="move" name="top"/>
    </contour>
  </outline>
</glyph>
<glyph name="g" format="1">
  <advance width="1243"/>
  <unicode hex="0067"/>
  <outline>
    <contour>
      <point x="454" y="-441" type="curve" smooth="yes"/>
      <point x="799" y="-441"/>
      <point x="968" y="-277"/>
      <point x="1015" y="-12" type="curve" smooth="yes"/>
      <point x="1207" y="1075" type="line"/>
      <point x="1005" y="1075" type="line"/>
      <point x="968" y="997" type="line"/>
      <point x="911" y="1052"/>
      <point x="803" y="1097"/>
      <point x="685" y="1097" type="curve" smooth="yes"/>
      <point x="382" y="1097"/>
      <point x="247" y="935"/>
      <point x="215" y="751" type="curve" smooth="yes"/>
      <point x="147" y="366" type="line" smooth="yes"/>
      <point x="143" y="343"/>
      <point x="141" y="321"/>
      <point x="141" y="300" type="curve" smooth="yes"/>
      <point x="141" y="130"/>
      <point x="276" y="32"/>
      <point x="507" y="32" type="curve" smooth="yes"/>
      <point x="589" y="32"/>
      <point x="690" y="50"/>
      <point x="761" y="88" type="curve"/>
      <point x="740" y="-30" type="line" smooth="yes"/>
      <point x="714" y="-178"/>
      <point x="635" y="-242"/>
      <point x="479" y="-242" type="curve" smooth="yes"/>
      <point x="396" y="-242"/>
      <point x="294" y="-228"/>
      <point x="198" y="-200" type="curve"/>
      <point x="109" y="-385" type="line"/>
      <point x="178" y="-421"/>
      <point x="321" y="-441"/>
    </contour>
    <contour>
      <point x="584" y="213" type="curve" smooth="yes"/>
      <point x="483" y="213"/>
      <point x="414" y="241"/>
      <point x="414" y="324" type="curve" smooth="yes"/>
      <point x="414" y="334"/>
      <point x="415" y="345"/>
      <point x="417" y="356" type="curve" smooth="yes"/>
      <point x="488" y="757" type="line" smooth="yes"/>
      <point x="507" y="865"/>
      <point x="582" y="907"/>
      <point x="706" y="907" type="curve" smooth="yes"/>
      <point x="829" y="907"/>
      <point x="897" y="860"/>
      <point x="892" y="832" type="curve" smooth="yes"/>
      <point x="791" y="261" type="line"/>
      <point x="749" y="234"/>
      <point x="676" y="213"/>
    </contour>
    <contour>
      <point x="710" y="1074" type="move" name="top"/>
    </contour>
  </outline>
</glyph>
<glyph name="h" format="1">
  <advance width="1272"/>
  <unicode hex="0068"/>
  <outline>
    <contour>
      <point x="36" y="0" type="line"/>
      <point x="308" y="0" type="line"/>
      <point x="439" y="738" type="line" smooth="yes"/>
      <point x="457" y="842"/>
      <point x="581" y="894"/>
      <point x="679" y="894" type="curve" smooth="yes"/>
      <point x="756" y="894"/>
      <point x="841" y="873"/>
      <point x="841" y="785" type="curve" smooth="yes"/>
      <point x="841" y="776"/>
      <point x="840" y="766"/>
      <point x="838" y="756" type="curve" smooth="yes"/>
      <point x="704" y="0" type="line"/>
      <point x="976" y="0" type="line"/>
      <point x="1117" y="795" type="line" smooth="yes"/>
      <point x="1121" y="816"/>
      <point x="1123" y="837"/>
      <point x="1123" y="857" type="curve" smooth="yes"/>
      <point x="1123" y="1003"/>
      <point x="1020" y="1097"/>
      <point x="838" y="1097" type="curve" smooth="yes"/>
      <point x="689" y="1097"/>
      <point x="539" y="1045"/>
      <point x="479" y="970" type="curve"/>
      <point x="576" y="1515" type="line"/>
      <point x="304" y="1515" type="line"/>
    </contour>
    <contour>
      <point x="916" y="1305" type="move" name="top"/>
    </contour>
  </outline>
</glyph>
<glyph name="l" format="1">
  <advance width="734"/>
  <unicode hex="006C"/>
  <outline>
    <contour>
      <point x="398" y="-12" type="curve" smooth="yes"/>
      <point x="512" y="-12" type="line"/>
      <point x="569" y="190" type="line"/>
      <point x="535" y="190" type="line" smooth="yes"/>
      <point x="413" y="190"/>
      <point x="367" y="225"/>
      <point x="367" y="305" type="curve" smooth="yes"/>
      <point x="367" y="321"/>
      <point x="369" y="338"/>
      <point x="372" y="357" type="curve" smooth="yes"/>
      <point x="577" y="1515" type="line"/>
      <point x="305" y="1515" type="line"/>
      <point x="100" y="353" type="line" smooth="yes"/>
      <point x="92" y="311"/>
      <point x="89" y="273"/>
      <point x="89" y="239" type="curve" smooth="yes"/>
      <point x="89" y="56"/>
      <point x="196" y="-12"/>
    </contour>
    <contour>
      <point x="339" y="0" type="move" name="bot"/>
    </contour>
    <contour>
      <point x="382" y="1074" type="move" name="caron.alt"/>
    </contour>
    <contour>
      <point x="469" y="1513" type="move" name="top"/>
    </contour>
  </outline>
</glyph>
<glyph name="m" format="1">
  <advance width="1912"/>
  <unicode hex="006D"/>
  <outline>
    <contour>
      <point x="71" y="0" type="line"/>
      <point x="343" y="0" type="line"/>
      <point x="474" y="739" type="line" smooth="yes"/>
      <point x="492" y="844"/>
      <point x="628" y="897"/>
      <point x="726" y="897" type="curve" smooth="yes"/>
      <point x="801" y="897"/>
      <point x="866" y="879"/>
      <point x="866" y="797" type="curve" smooth="yes"/>
      <point x="866" y="786"/>
      <point x="865" y="775"/>
      <point x="863" y="762" type="curve" smooth="yes"/>
      <point x="728" y="0" type="line"/>
      <point x="1000" y="0" type="line"/>
      <point x="1133" y="750" type="line"/>
      <point x="1157" y="846"/>
      <point x="1289" y="897"/>
      <point x="1386" y="897" type="curve" smooth="yes"/>
      <point x="1460" y="897"/>
      <point x="1520" y="880"/>
      <point x="1520" y="799" type="curve" smooth="yes"/>
      <point x="1520" y="788"/>
      <point x="1518" y="776"/>
      <point x="1516" y="762" type="curve" smooth="yes"/>
      <point x="1381" y="0" type="line"/>
      <point x="1653" y="0" type="line"/>
      <point x="1793" y="794" type="line" smooth="yes"/>
      <point x="1797" y="814"/>
      <point x="1798" y="834"/>
      <point x="1798" y="853" type="curve" smooth="yes"/>
      <point x="1798" y="1001"/>
      <point x="1689" y="1097"/>
      <point x="1506" y="1097" type="curve" smooth="yes"/>
      <point x="1336" y="1097"/>
      <point x="1217" y="1042"/>
      <point x="1125" y="964" type="curve"/>
      <point x="1086" y="1056"/>
      <point x="992" y="1097"/>
      <point x="854" y="1097" type="curve" smooth="yes"/>
      <point x="675" y="1097"/>
      <point x="553" y="1011"/>
      <point x="516" y="978" type="curve"/>
      <point x="533" y="1074" type="line"/>
      <point x="261" y="1074" type="line"/>
    </contour>
    <contour>
      <point x="1155" y="1074" type="move" name="top"/>
    </contour>
  </outline>
</glyph>
<glyph name="n" format="1">
  <advance width="1272"/>
  <unicode hex="006E"/>
  <outline>
    <contour>
      <point x="1149" y="770" type="line" smooth="yes"/>
      <point x="1153" y="796"/>
      <point x="1156" y="821"/>
      <point x="1156" y="844" type="curve" smooth="yes"/>
      <point x="1156" y="995"/>
      <point x="1063" y="1099"/>
      <point x="870" y="1099" type="curve" smooth="yes"/>
      <point x="668" y="1099"/>
      <point x="541" y="998"/>
      <point x="516" y="979" type="curve"/>
      <point x="532" y="1074" type="line"/>
      <point x="260" y="1074" type="line"/>
      <point x="71" y="0" type="line"/>
      <point x="343" y="0" type="line"/>
      <point x="473" y="735" type="line" smooth="yes"/>
      <point x="491" y="840"/>
      <point x="612" y="894"/>
      <point x="710" y="894" type="curve" smooth="yes"/>
      <point x="787" y="894"/>
      <point x="877" y="872"/>
      <point x="877" y="783" type="curve" smooth="yes"/>
      <point x="877" y="774"/>
      <point x="876" y="765"/>
      <point x="874" y="755" type="curve" smooth="yes"/>
      <point x="741" y="0" type="line"/>
      <point x="1013" y="0" type="line"/>
    </contour>
    <contour>
      <point x="567" y="0" type="move" name="bot"/>
    </contour>
    <contour>
      <point x="771" y="1074" type="move" name="top"/>
    </contour>
  </outline>
</glyph>
<glyph name="q" format="1">
  <advance width="1210"/>
  <unicode hex="0071"/>
  <outline>
    <contour>
      <point x="637" y="-410" type="line"/>
      <point x="909" y="-410" type="line"/>
      <point x="1171" y="1074" type="line"/>
      <point x="968" y="1074" type="line"/>
      <point x="937" y="1005" type="line"/>
      <point x="885" y="1056"/>
      <point x="788" y="1097"/>
      <point x="676" y="1097" type="curve" smooth="yes"/>
      <point x="415" y="1097"/>
      <point x="233" y="960"/>
      <point x="196" y="750" type="curve" smooth="yes"/>
      <point x="119" y="317" type="line" smooth="yes"/>
      <point x="115" y="293"/>
      <point x="113" y="270"/>
      <point x="113" y="247" type="curve" smooth="yes"/>
      <point x="113" y="97"/>
      <point x="210" y="-23"/>
      <point x="472" y="-23" type="curve" smooth="yes"/>
      <point x="554" y="-23"/>
      <point x="644" y="-4"/>
      <point x="715" y="33" type="curve"/>
    </contour>
    <contour>
      <point x="557" y="166" type="curve" smooth="yes"/>
      <point x="450" y="166"/>
      <point x="387" y="193"/>
      <point x="387" y="274" type="curve" smooth="yes"/>
      <point x="387" y="285"/>
      <point x="388" y="296"/>
      <point x="390" y="308" type="curve" smooth="yes"/>
      <point x="469" y="756" type="line" smooth="yes"/>
      <point x="488" y="865"/>
      <point x="571" y="907"/>
      <point x="687" y="907" type="curve" smooth="yes"/>
      <point x="784" y="907"/>
      <point x="839" y="878"/>
      <point x="857" y="839" type="curve"/>
      <point x="748" y="220" type="line"/>
      <point x="744" y="213"/>
      <point x="671" y="166"/>
    </contour>
  </outline>
</glyph>
<glyph name="asciitilde" format="1">
  <advance width="1024"/>
  <unicode hex="007E"/>
  <outline>
    <contour>
      <point x="661" y="1131" type="curve" smooth="yes"/>
      <point x="796" y="1131"/>
      <point x="928" y="1262"/>
      <point x="961" y="1450" type="curve"/>
      <point x="852" y="1450" type="line"/>
      <point x="839" y="1379"/>
      <point x="792" y="1298"/>
      <point x="702" y="1298" type="curve" smooth="yes"/>
      <point x="622" y="1298"/>
      <point x="515" y="1466"/>
      <point x="362" y="1466" type="curve" smooth="yes"/>
      <point x="227" y="1466"/>
      <point x="97" y="1336"/>
      <point x="63" y="1147" type="curve"/>
      <point x="171" y="1147" type="line"/>
      <point x="184" y="1218"/>
      <point x="231" y="1300"/>
      <point x="322" y="1300" type="curve" smooth="yes"/>
      <point x="401" y="1300"/>
      <point x="507" y="1131"/>
    </contour>
  </outline>
</glyph>
<glyph name="sterling" format="1">
  <advance width="1285"/>
  <unicode hex="00A3"/>
  <outline>
    <contour>
      <point x="72" y="0" type="line"/>
      <point x="990" y="0" type="line"/>
      <point x="1030" y="226" type="line"/>
      <point x="422" y="226" type="line"/>
      <point x="526" y="621" type="line"/>
      <point x="1019" y="621" type="line"/>
      <point x="1053" y="812" type="line"/>
      <point x="577" y="812" type="line"/>
      <point x="637" y="1044" type="line"/>
      <point x="670" y="1180"/>
      <point x="731" y="1281"/>
      <point x="887" y="1281" type="curve" smooth="yes"/>
      <point x="958" y="1281"/>
      <point x="1042" y="1261"/>
      <point x="1139" y="1214" type="curve"/>
      <point x="1246" y="1415" type="line"/>
      <point x="1177" y="1467"/>
      <point x="1048" y="1515"/>
      <point x="905" y="1515" type="curve" smooth="yes"/>
      <point x="574" y="1515"/>
      <point x="410" y="1344"/>
      <point x="345" y="1061" type="curve"/>
      <point x="281" y="812" type="line"/>
      <point x="144" y="812" type="line"/>
      <point x="110" y="621" type="line"/>
      <point x="232" y="621" type="line"/>
    </contour>
  </outline>
</glyph>
<glyph name="currency" format="1">
  <advance width="1126"/>
  <unicode hex="00A4"/>
  <outline>
    <contour>
      <point x="286" y="892" type="line"/>
      <point x="239" y="824"/>
      <point x="210" y="755"/>
      <point x="210" y="657" type="curve" smooth="yes"/>
      <point x="210" y="622"/>
      <point x="215" y="589"/>
      <point x="225" y="559" type="curve"/>
      <point x="81" y="467" type="line"/>
      <point x="114" y="383" type="line"/>
      <point x="266" y="480" type="line"/>
      <point x="312" y="420"/>
      <point x="391" y="381"/>
      <point x="500" y="381" type="curve" smooth="yes"/>
      <point x="609" y="381"/>
      <point x="701" y="423"/>
      <point x="769" y="485" type="curve"/>
      <point x="890" y="384" type="line"/>
      <point x="956" y="465" type="line"/>
      <point x="836" y="563" type="line"/>
      <point x="879" y="627"/>
      <point x="905" y="698"/>
      <point x="905" y="791" type="curve" smooth="yes"/>
      <point x="905" y="824"/>
      <point x="901" y="856"/>
      <point x="891" y="886" type="curve"/>
      <point x="1045" y="986" type="line"/>
      <point x="1012" y="1067" type="line"/>
      <point x="851" y="964" type="line"/>
      <point x="805" y="1025"/>
      <point x="729" y="1064"/>
      <point x="620" y="1064" type="curve" smooth="yes"/>
      <point x="512" y="1064"/>
      <point x="421" y="1026"/>
      <point x="354" y="968" type="curve"/>
      <point x="237" y="1067" type="line"/>
      <point x="170" y="987" type="line"/>
    </contour>
    <contour>
      <point x="752" y="766" type="curve" smooth="yes"/>
      <point x="752" y="638"/>
      <point x="664" y="528"/>
      <point x="525" y="528" type="curve" smooth="yes"/>
      <point x="412" y="528"/>
      <point x="364" y="597"/>
      <point x="364" y="681" type="curve" smooth="yes"/>
      <point x="364" y="809"/>
      <point x="453" y="918"/>
      <point x="594" y="918" type="curve" smooth="yes"/>
      <point x="705" y="918"/>
      <point x="752" y="849"/>
    </contour>
  </outline>
</glyph>
<glyph name="dieresis" format="1">
  <advance width="967"/>
  <unicode hex="00A8"/>
  <outline>
    <contour>
      <point x="94" y="1244" type="line"/>
      <point x="358" y="1244" type="line"/>
      <point x="400" y="1477" type="line"/>
      <point x="136" y="1477" type="line"/>
    </contour>
    <contour>
      <point x="603" y="1244" type="line"/>
      <point x="868" y="1244" type="line"/>
      <point x="910" y="1477" type="line"/>
      <point x="645" y="1477" type="line"/>
    </contour>
    <contour>
      <point x="444" y="1074" type="move" name="_top"/>
    </contour>
  </outline>
</glyph>
<glyph name="copyright" format="1">
  <advance width="1776"/>
  <unicode hex="00A9"/>
  <outline>
    <contour>
      <point x="822" y="287" type="curve"/>
      <point x="1098" y="287"/>
      <point x="1171" y="422"/>
      <point x="1202" y="598" type="curve" smooth="yes"/>
      <point x="1208" y="632" type="line"/>
      <point x="1092" y="632" type="line"/>
      <point x="1082" y="571" type="line"/>
      <point x="1055" y="419"/>
      <point x="991" y="376"/>
      <point x="838" y="376" type="curve" smooth="yes"/>
      <point x="707" y="376"/>
      <point x="635" y="408"/>
      <point x="635" y="514" type="curve" smooth="yes"/>
      <point x="635" y="531"/>
      <point x="637" y="550"/>
      <point x="641" y="571" type="curve" smooth="yes"/>
      <point x="697" y="890" type="line" smooth="yes"/>
      <point x="724" y="1042"/>
      <point x="812" y="1091"/>
      <point x="963" y="1091" type="curve" smooth="yes"/>
      <point x="1089" y="1091"/>
      <point x="1145" y="1057"/>
      <point x="1145" y="959" type="curve" smooth="yes"/>
      <point x="1145" y="939"/>
      <point x="1143" y="916"/>
      <point x="1138" y="890" type="curve" smooth="yes"/>
      <point x="1127" y="826" type="line"/>
      <point x="1244" y="836" type="line"/>
      <point x="1249" y="861" type="line" smooth="yes"/>
      <point x="1256" y="899"/>
      <point x="1260" y="935"/>
      <point x="1260" y="968" type="curve" smooth="yes"/>
      <point x="1260" y="1095"/>
      <point x="1199" y="1182"/>
      <point x="979" y="1182" type="curve" smooth="yes"/>
      <point x="691" y="1182"/>
      <point x="605" y="1050"/>
      <point x="573" y="868" type="curve" smooth="yes"/>
      <point x="524" y="590" type="line" smooth="yes"/>
      <point x="518" y="558"/>
      <point x="515" y="528"/>
      <point x="515" y="500" type="curve" smooth="yes"/>
      <point x="515" y="371"/>
      <point x="586" y="287"/>
    </contour>
    <contour>
      <point x="777" y="82" type="curve" smooth="yes"/>
      <point x="456" y="82"/>
      <point x="250" y="296"/>
      <point x="250" y="597" type="curve" smooth="yes"/>
      <point x="250" y="637"/>
      <point x="253" y="679"/>
      <point x="261" y="722" type="curve" smooth="yes"/>
      <point x="325" y="1086"/>
      <point x="639" y="1361"/>
      <point x="1003" y="1361" type="curve" smooth="yes"/>
      <point x="1326" y="1361"/>
      <point x="1529" y="1148"/>
      <point x="1529" y="848" type="curve" smooth="yes"/>
      <point x="1529" y="808"/>
      <point x="1526" y="765"/>
      <point x="1518" y="722" type="curve" smooth="yes"/>
      <point x="1454" y="357"/>
      <point x="1143" y="82"/>
    </contour>
    <contour>
      <point x="758" y="-14" type="curve" smooth="yes"/>
      <point x="1174" y="-14"/>
      <point x="1550" y="303"/>
      <point x="1624" y="722" type="curve" smooth="yes"/>
      <point x="1632" y="769"/>
      <point x="1636" y="815"/>
      <point x="1636" y="859" type="curve" smooth="yes"/>
      <point x="1636" y="1206"/>
      <point x="1387" y="1456"/>
      <point x="1018" y="1456" type="curve" smooth="yes"/>
      <point x="605" y="1456"/>
      <point x="226" y="1139"/>
      <point x="152" y="722" type="curve" smooth="yes"/>
      <point x="144" y="675"/>
      <point x="140" y="629"/>
      <point x="140" y="585" type="curve" smooth="yes"/>
      <point x="140" y="236"/>
      <point x="391" y="-14"/>
    </contour>
  </outline>
</glyph>
<glyph name="guillemotleft" format="1">
  <advance width="1024"/>
  <unicode hex="00AB"/>
  <outline>
    <contour>
      <point x="268" y="80" type="line"/>
      <point x="420" y="150" type="line"/>
      <point x="280" y="530" type="line"/>
      <point x="554" y="910" type="line"/>
      <point x="419" y="980" type="line"/>
      <point x="67" y="530" type="line"/>
    </contour>
    <contour>
      <point x="682" y="80" type="line"/>
      <point x="832" y="150" type="line"/>
      <point x="694" y="530" type="line"/>
      <point x="966" y="910" type="line"/>
      <point x="833" y="980" type="line"/>
      <point x="481" y="530" type="line"/>
    </contour>
  </outline>
</glyph>
<glyph name="logicalnot" format="1">
  <advance width="1024"/>
  <unicode hex="00AC"/>
  <outline>
    <contour>
      <point x="658" y="226" type="line"/>
      <point x="806" y="226" type="line"/>
      <point x="900" y="757" type="line"/>
      <point x="176" y="757" type="line"/>
      <point x="146" y="587" type="line"/>
      <point x="722" y="587" type="line"/>
    </contour>
  </outline>
</glyph>
<glyph name="registered" format="1">
  <advance width="1776"/>
  <unicode hex="00AE"/>
  <outline>
    <contour>
      <point x="1096" y="666" type="line"/>
      <point x="1207" y="695"/>
      <point x="1296" y="796"/>
      <point x="1296" y="966" type="curve" smooth="yes"/>
      <point x="1296" y="1098"/>
      <point x="1209" y="1153"/>
      <point x="1071" y="1153" type="curve" smooth="yes"/>
      <point x="668" y="1153" type="line"/>
      <point x="521" y="319" type="line"/>
      <point x="652" y="319" type="line"/>
      <point x="711" y="652" type="line"/>
      <point x="970" y="652" type="line"/>
      <point x="1091" y="319" type="line"/>
      <point x="1219" y="319" type="line"/>
    </contour>
    <contour>
      <point x="727" y="742" type="line"/>
      <point x="783" y="1062" type="line"/>
      <point x="1059" y="1062" type="line" smooth="yes"/>
      <point x="1145" y="1062"/>
      <point x="1163" y="1008"/>
      <point x="1163" y="956" type="curve" smooth="yes"/>
      <point x="1163" y="936"/>
      <point x="1161" y="917"/>
      <point x="1158" y="901" type="curve" smooth="yes"/>
      <point x="1154" y="877" type="line"/>
      <point x="1141" y="814"/>
      <point x="1108" y="742"/>
      <point x="994" y="742" type="curve" smooth="yes"/>
    </contour>
    <contour>
      <point x="777" y="82" type="curve" smooth="yes"/>
      <point x="456" y="82"/>
      <point x="250" y="296"/>
      <point x="250" y="597" type="curve" smooth="yes"/>
      <point x="250" y="637"/>
      <point x="253" y="679"/>
      <point x="261" y="722" type="curve" smooth="yes"/>
      <point x="325" y="1086"/>
      <point x="639" y="1361"/>
      <point x="1003" y="1361" type="curve" smooth="yes"/>
      <point x="1326" y="1361"/>
      <point x="1529" y="1148"/>
      <point x="1529" y="848" type="curve" smooth="yes"/>
      <point x="1529" y="808"/>
      <point x="1526" y="765"/>
      <point x="1518" y="722" type="curve" smooth="yes"/>
      <point x="1454" y="357"/>
      <point x="1143" y="82"/>
    </contour>
    <contour>
      <point x="758" y="-14" type="curve" smooth="yes"/>
      <point x="1174" y="-14"/>
      <point x="1550" y="303"/>
      <point x="1624" y="722" type="curve" smooth="yes"/>
      <point x="1632" y="769"/>
      <point x="1636" y="815"/>
      <point x="1636" y="859" type="curve" smooth="yes"/>
      <point x="1636" y="1206"/>
      <point x="1387" y="1456"/>
      <point x="1018" y="1456" type="curve" smooth="yes"/>
      <point x="605" y="1456"/>
      <point x="226" y="1139"/>
      <point x="152" y="722" type="curve" smooth="yes"/>
      <point x="144" y="675"/>
      <point x="140" y="629"/>
      <point x="140" y="585" type="curve" smooth="yes"/>
      <point x="140" y="236"/>
      <point x="391" y="-14"/>
    </contour>
  </outline>
</glyph>
<glyph name="macron" format="1">
  <advance width="511"/>
  <unicode hex="00AF"/>
  <outline>
    <contour>
      <point x="-61" y="1251" type="line"/>
      <point x="543" y="1251" type="line"/>
      <point x="571" y="1408" type="line"/>
      <point x="-33" y="1408" type="line"/>
    </contour>
    <contour>
      <point x="258" y="1329" type="move" name="_mid"/>
    </contour>
    <contour>
      <point x="212" y="1074" type="move" name="_top"/>
    </contour>
  </outline>
</glyph>
<glyph name="degree" format="1">
  <advance width="974"/>
  <unicode hex="00B0"/>
  <outline>
    <contour>
      <point x="691" y="1218" type="curve" smooth="yes"/>
      <point x="691" y="1093"/>
      <point x="600" y="992"/>
      <point x="456" y="992" type="curve" smooth="yes"/>
      <point x="336" y="992"/>
      <point x="285" y="1060"/>
      <point x="285" y="1143" type="curve" smooth="yes"/>
      <point x="285" y="1155"/>
      <point x="286" y="1168"/>
      <point x="288" y="1181" type="curve" smooth="yes"/>
      <point x="305" y="1278"/>
      <point x="384" y="1370"/>
      <point x="522" y="1370" type="curve" smooth="yes"/>
      <point x="640" y="1370"/>
      <point x="691" y="1300"/>
    </contour>
    <contour>
      <point x="431" y="850" type="curve" smooth="yes"/>
      <point x="667" y="850"/>
      <point x="816" y="1010"/>
      <point x="846" y="1180" type="curve" smooth="yes"/>
      <point x="850" y="1201"/>
      <point x="851" y="1221"/>
      <point x="851" y="1241" type="curve" smooth="yes"/>
      <point x="851" y="1387"/>
      <point x="754" y="1511"/>
      <point x="547" y="1511" type="curve"/>
      <point x="308" y="1511"/>
      <point x="158" y="1351"/>
      <point x="128" y="1180" type="curve" smooth="yes"/>
      <point x="124" y="1160"/>
      <point x="123" y="1139"/>
      <point x="123" y="1119" type="curve" smooth="yes"/>
      <point x="123" y="974"/>
      <point x="220" y="850"/>
    </contour>
  </outline>
</glyph>
<glyph name="plusminus" format="1">
  <advance width="1024"/>
  <unicode hex="00B1"/>
  <outline>
    <contour>
      <point x="397" y="326" type="line"/>
      <point x="563" y="326" type="line"/>
      <point x="609" y="591" type="line"/>
      <point x="867" y="591" type="line"/>
      <point x="896" y="755" type="line"/>
      <point x="638" y="755" type="line"/>
      <point x="685" y="1018" type="line"/>
      <point x="519" y="1018" type="line"/>
      <point x="472" y="755" type="line"/>
      <point x="214" y="755" type="line"/>
      <point x="185" y="591" type="line"/>
      <point x="443" y="591" type="line"/>
    </contour>
    <contour>
      <point x="81" y="0" type="line"/>
      <point x="763" y="0" type="line"/>
      <point x="792" y="165" type="line"/>
      <point x="110" y="165" type="line"/>
    </contour>
  </outline>
</glyph>
<glyph name="twosuperior" format="1">
  <advance width="1005"/>
  <unicode hex="00B2"/>
  <outline>
    <contour>
      <point x="105" y="624" type="line"/>
      <point x="744" y="624" type="line"/>
      <point x="770" y="773" type="line"/>
      <point x="342" y="773" type="line"/>
      <point x="620" y="971" type="line" smooth="yes"/>
      <point x="774" y="1081"/>
      <point x="856" y="1163"/>
      <point x="879" y="1295" type="curve" smooth="yes"/>
      <point x="883" y="1315"/>
      <point x="884" y="1336"/>
      <point x="884" y="1355" type="curve" smooth="yes"/>
      <point x="884" y="1486"/>
      <point x="798" y="1582"/>
      <point x="581" y="1582" type="curve" smooth="yes"/>
      <point x="319" y="1582"/>
      <point x="202" y="1487"/>
      <point x="161" y="1256" type="curve"/>
      <point x="362" y="1256" type="line"/>
      <point x="387" y="1397"/>
      <point x="440" y="1435"/>
      <point x="564" y="1435" type="curve" smooth="yes"/>
      <point x="656" y="1435"/>
      <point x="693" y="1399"/>
      <point x="693" y="1334" type="curve" smooth="yes"/>
      <point x="693" y="1322"/>
      <point x="692" y="1308"/>
      <point x="689" y="1294" type="curve" smooth="yes"/>
      <point x="676" y="1221"/>
      <point x="641" y="1177"/>
      <point x="522" y="1087" type="curve" smooth="yes"/>
      <point x="107" y="772" type="line"/>
    </contour>
  </outline>
</glyph>
<glyph name="threesuperior" format="1">
  <advance width="927"/>
  <unicode hex="00B3"/>
  <outline>
    <contour>
      <point x="572" y="929" type="curve" smooth="yes"/>
      <point x="572" y="817"/>
      <point x="521" y="760"/>
      <point x="407" y="760" type="curve" smooth="yes"/>
      <point x="326" y="760"/>
      <point x="294" y="791"/>
      <point x="294" y="862" type="curve" smooth="yes"/>
      <point x="294" y="878"/>
      <point x="296" y="897"/>
      <point x="299" y="918" type="curve"/>
      <point x="109" y="918" type="line"/>
      <point x="105" y="892"/>
      <point x="103" y="868"/>
      <point x="103" y="845" type="curve" smooth="yes"/>
      <point x="103" y="684"/>
      <point x="207" y="608"/>
      <point x="386" y="608" type="curve" smooth="yes"/>
      <point x="588" y="608"/>
      <point x="733" y="689"/>
      <point x="766" y="874" type="curve" smooth="yes"/>
      <point x="770" y="896"/>
      <point x="772" y="917"/>
      <point x="772" y="936" type="curve" smooth="yes"/>
      <point x="772" y="1023"/>
      <point x="731" y="1079"/>
      <point x="639" y="1104" type="curve"/>
      <point x="765" y="1128"/>
      <point x="837" y="1238"/>
      <point x="837" y="1377" type="curve" smooth="yes"/>
      <point x="837" y="1525"/>
      <point x="718" y="1582"/>
      <point x="552" y="1582" type="curve"/>
      <point x="344" y="1582"/>
      <point x="215" y="1485"/>
      <point x="177" y="1276" type="curve"/>
      <point x="366" y="1276" type="line"/>
      <point x="385" y="1386"/>
      <point x="422" y="1432"/>
      <point x="525" y="1432" type="curve" smooth="yes"/>
      <point x="612" y="1432"/>
      <point x="639" y="1395"/>
      <point x="639" y="1344" type="curve" smooth="yes"/>
      <point x="639" y="1333"/>
      <point x="638" y="1322"/>
      <point x="636" y="1310" type="curve" smooth="yes"/>
      <point x="619" y="1212"/>
      <point x="577" y="1174"/>
      <point x="402" y="1174" type="curve"/>
      <point x="377" y="1034" type="line"/>
      <point x="524" y="1034"/>
      <point x="572" y="1006"/>
    </contour>
  </outline>
</glyph>
<glyph name="acute" format="1">
  <advance width="554"/>
  <unicode hex="00B4"/>
  <outline>
    <contour>
      <point x="74" y="1218" type="line"/>
      <point x="223" y="1218" type="line"/>
      <point x="520" y="1583" type="line"/>
      <point x="252" y="1583" type="line"/>
    </contour>
    <contour>
      <point x="109" y="1074" type="move" name="_top"/>
    </contour>
  </outline>
</glyph>
<glyph name="paragraph" format="1">
  <advance width="1222"/>
  <unicode hex="00B6"/>
  <outline>
    <contour>
      <point x="317" y="0" type="line"/>
      <point x="489" y="0" type="line"/>
      <point x="724" y="1334" type="line"/>
      <point x="955" y="1334" type="line"/>
      <point x="720" y="0" type="line"/>
      <point x="892" y="0" type="line"/>
      <point x="1152" y="1476" type="line"/>
      <point x="592" y="1476" type="line" smooth="yes"/>
      <point x="398" y="1476"/>
      <point x="210" y="1389"/>
      <point x="172" y="1173" type="curve" smooth="yes"/>
      <point x="168" y="1150"/>
      <point x="166" y="1128"/>
      <point x="166" y="1108" type="curve" smooth="yes"/>
      <point x="166" y="942"/>
      <point x="295" y="859"/>
      <point x="468" y="858" type="curve"/>
    </contour>
  </outline>
</glyph>
<glyph name="ordmasculine" format="1">
  <advance width="1024"/>
  <unicode hex="00BA"/>
  <outline>
    <contour>
      <point x="453" y="675" type="line" smooth="yes"/>
      <point x="364" y="675"/>
      <point x="315" y="700"/>
      <point x="315" y="770" type="curve" smooth="yes"/>
      <point x="315" y="780"/>
      <point x="316" y="790"/>
      <point x="318" y="802" type="curve" smooth="yes"/>
      <point x="386" y="1187" type="line" smooth="yes"/>
      <point x="403" y="1281"/>
      <point x="471" y="1314"/>
      <point x="567" y="1314" type="curve" smooth="yes"/>
      <point x="654" y="1314"/>
      <point x="704" y="1289"/>
      <point x="704" y="1220" type="curve" smooth="yes"/>
      <point x="704" y="1210"/>
      <point x="703" y="1199"/>
      <point x="701" y="1187" type="curve" smooth="yes"/>
      <point x="633" y="802" type="line" smooth="yes"/>
      <point x="617" y="708"/>
      <point x="549" y="675"/>
      <point x="455" y="675" type="curve" smooth="yes"/>
    </contour>
    <contour>
      <point x="428" y="512" type="curve"/>
      <point x="709" y="513"/>
      <point x="824" y="628"/>
      <point x="856" y="811" type="curve" smooth="yes"/>
      <point x="920" y="1175" type="line" smooth="yes"/>
      <point x="924" y="1196"/>
      <point x="925" y="1215"/>
      <point x="925" y="1234" type="curve" smooth="yes"/>
      <point x="925" y="1386"/>
      <point x="808" y="1475"/>
      <point x="597" y="1475" type="curve" smooth="yes"/>
      <point x="358" y="1475"/>
      <point x="201" y="1363"/>
      <point x="168" y="1175" type="curve" smooth="yes"/>
      <point x="104" y="811" type="line" smooth="yes"/>
      <point x="99" y="786"/>
      <point x="97" y="762"/>
      <point x="97" y="739" type="curve" smooth="yes"/>
      <point x="97" y="597"/>
      <point x="191" y="512"/>
    </contour>
  </outline>
</glyph>
<glyph name="onequarter" format="1">
  <advance width="2433"/>
  <unicode hex="00BC"/>
  <outline>
    <contour>
      <point x="1845" y="0" type="line"/>
      <point x="2004" y="0" type="line"/>
      <point x="2041" y="210" type="line"/>
      <point x="2209" y="210" type="line"/>
      <point x="2238" y="373" type="line"/>
      <point x="2070" y="373" type="line"/>
      <point x="2113" y="615" type="line"/>
      <point x="1954" y="615" type="line"/>
      <point x="1911" y="373" type="line"/>
      <point x="1612" y="373" type="line"/>
      <point x="2005" y="1074" type="line"/>
      <point x="1814" y="1074" type="line"/>
      <point x="1409" y="369" type="line"/>
      <point x="1381" y="210" type="line"/>
      <point x="1882" y="210" type="line"/>
    </contour>
    <contour>
      <point x="73" y="422" type="line"/>
      <point x="798" y="422" type="line"/>
      <point x="824" y="569" type="line"/>
      <point x="578" y="569" type="line"/>
      <point x="738" y="1477" type="line"/>
      <point x="592" y="1477" type="line"/>
      <point x="246" y="1424" type="line"/>
      <point x="239" y="1279" type="line"/>
      <point x="498" y="1318" type="line"/>
      <point x="366" y="569" type="line"/>
      <point x="98" y="569" type="line"/>
    </contour>
    <contour>
      <point x="716" y="0" type="line"/>
      <point x="890" y="0" type="line"/>
      <point x="1797" y="1505" type="line"/>
      <point x="1623" y="1505" type="line"/>
    </contour>
  </outline>
</glyph>
<glyph name="AE" format="1">
  <advance width="1834"/>
  <unicode hex="00C6"/>
  <outline>
    <contour>
      <point x="-47" y="0" type="line"/>
      <point x="263" y="0" type="line"/>
      <point x="391" y="281" type="line"/>
      <point x="812" y="281" type="line"/>
      <point x="763" y="0" type="line"/>
      <point x="1580" y="0" type="line"/>
      <point x="1620" y="227" type="line"/>
      <point x="1083" y="227" type="line"/>
      <point x="1157" y="645" type="line"/>
      <point x="1614" y="645" type="line"/>
      <point x="1651" y="858" type="line"/>
      <point x="1194" y="858" type="line"/>
      <point x="1263" y="1249" type="line"/>
      <point x="1790" y="1249" type="line"/>
      <point x="1830" y="1477" type="line"/>
      <point x="669" y="1477" type="line"/>
    </contour>
    <contour>
      <point x="481" y="477" type="line"/>
      <point x="847" y="1249" type="line"/>
      <point x="983" y="1249" type="line"/>
      <point x="847" y="477" type="line"/>
    </contour>
    <contour>
      <point x="1226" y="1476" type="move" name="top"/>
    </contour>
  </outline>
</glyph>
<glyph name="multiply" format="1">
  <advance width="1025"/>
  <unicode hex="00D7"/>
  <outline>
    <contour>
      <point x="201" y="216" type="line"/>
      <point x="492" y="458" type="line"/>
      <point x="697" y="216" type="line"/>
      <point x="830" y="344" type="line"/>
      <point x="634" y="576" type="line"/>
      <point x="911" y="806" type="line"/>
      <point x="825" y="937" type="line"/>
      <point x="534" y="694" type="line"/>
      <point x="329" y="937" type="line"/>
      <point x="194" y="806" type="line"/>
      <point x="392" y="576" type="line"/>
      <point x="113" y="344" type="line"/>
    </contour>
  </outline>
</glyph>
<glyph name="Oslash" format="1">
  <advance width="1606"/>
  <unicode hex="00D8"/>
  <outline>
    <contour>
      <point x="335" y="-217" type="line"/>
      <point x="1392" y="1675" type="line"/>
      <point x="1309" y="1698" type="line"/>
      <point x="252" y="-194" type="line"/>
    </contour>
    <component base="O"/>
  </outline>
</glyph>
<glyph name="Thorn" format="1">
  <advance width="1362"/>
  <unicode hex="00DE"/>
  <outline>
    <contour>
      <point x="86" y="0" type="line"/>
      <point x="383" y="0" type="line"/>
      <point x="446" y="356" type="line"/>
      <point x="711" y="356" type="line" smooth="yes"/>
      <point x="1097" y="356"/>
      <point x="1225" y="469"/>
      <point x="1285" y="811" type="curve" smooth="yes"/>
      <point x="1294" y="864"/>
      <point x="1299" y="911"/>
      <point x="1299" y="953" type="curve" smooth="yes"/>
      <point x="1299" y="1172"/>
      <point x="1170" y="1240"/>
      <point x="895" y="1240" type="curve" smooth="yes"/>
      <point x="602" y="1240" type="line"/>
      <point x="643" y="1476" type="line"/>
      <point x="346" y="1476" type="line"/>
    </contour>
    <contour>
      <point x="483" y="567" type="line"/>
      <point x="565" y="1033" type="line"/>
      <point x="886" y="1033" type="line" smooth="yes"/>
      <point x="990" y="1033"/>
      <point x="1026" y="988"/>
      <point x="1026" y="902" type="curve" smooth="yes"/>
      <point x="1026" y="872"/>
      <point x="1021" y="837"/>
      <point x="1014" y="797" type="curve" smooth="yes"/>
      <point x="983" y="619"/>
      <point x="945" y="567"/>
      <point x="795" y="567" type="curve" smooth="yes"/>
    </contour>
  </outline>
</glyph>
<glyph name="germandbls" format="1">
  <advance width="1286"/>
  <unicode hex="00DF"/>
  <outline>
    <contour>
      <point x="9" y="0" type="line"/>
      <point x="319" y="0" type="line"/>
      <point x="518" y="1129" type="line" smooth="yes"/>
      <point x="538" y="1244"/>
      <point x="589" y="1318"/>
      <point x="734" y="1318" type="curve" smooth="yes"/>
      <point x="874" y="1318"/>
      <point x="908" y="1250"/>
      <point x="908" y="1175" type="curve" smooth="yes"/>
      <point x="908" y="1153"/>
      <point x="905" y="1132"/>
      <point x="901" y="1110" type="curve" smooth="yes"/>
      <point x="881" y="1001"/>
      <point x="826" y="893"/>
      <point x="644" y="893" type="curve"/>
      <point x="611" y="703" type="line"/>
      <point x="781" y="686"/>
      <point x="875" y="659"/>
      <point x="875" y="512" type="curve" smooth="yes"/>
      <point x="875" y="486"/>
      <point x="872" y="456"/>
      <point x="866" y="422" type="curve" smooth="yes"/>
      <point x="838" y="264"/>
      <point x="753" y="169"/>
      <point x="503" y="169" type="curve"/>
      <point x="487" y="-20" type="line"/>
      <point x="916" y="-20"/>
      <point x="1108" y="156"/>
      <point x="1151" y="400" type="curve" smooth="yes"/>
      <point x="1157" y="432"/>
      <point x="1161" y="467"/>
      <point x="1161" y="503" type="curve" smooth="yes"/>
      <point x="1161" y="632"/>
      <point x="1109" y="772"/>
      <point x="892" y="819" type="curve"/>
      <point x="1064" y="864"/>
      <point x="1158" y="990"/>
      <point x="1182" y="1122" type="curve" smooth="yes"/>
      <point x="1187" y="1149"/>
      <point x="1189" y="1176"/>
      <point x="1189" y="1202" type="curve" smooth="yes"/>
      <point x="1189" y="1377"/>
      <point x="1073" y="1507"/>
      <point x="748" y="1507" type="curve" smooth="yes"/>
      <point x="429" y="1507"/>
      <point x="247" y="1350"/>
      <point x="206" y="1118" type="curve" smooth="yes"/>
    </contour>
  </outline>
</glyph>
<glyph name="oslash" format="1">
  <advance width="1180"/>
  <unicode hex="00F8"/>
  <outline>
    <contour>
      <point x="235" y="-214" type="line"/>
      <point x="1024" y="1260" type="line"/>
      <point x="956" y="1281" type="line"/>
      <point x="167" y="-194" type="line"/>
    </contour>
    <component base="o"/>
    <contour>
      <point x="695" y="1074" type="move" name="top"/>
    </contour>
  </outline>
</glyph>
<glyph name="thorn" format="1">
  <advance width="1212"/>
  <unicode hex="00FE"/>
  <outline>
    <contour>
      <point x="-12" y="-410" type="line"/>
      <point x="261" y="-410" type="line"/>
      <point x="336" y="17" type="line"/>
      <point x="385" y="-6"/>
      <point x="449" y="-24"/>
      <point x="534" y="-24" type="curve" smooth="yes"/>
      <point x="837" y="-24"/>
      <point x="1008" y="142"/>
      <point x="1040" y="326" type="curve" smooth="yes"/>
      <point x="1115" y="751" type="line" smooth="yes"/>
      <point x="1119" y="774"/>
      <point x="1121" y="796"/>
      <point x="1121" y="817" type="curve" smooth="yes"/>
      <point x="1121" y="986"/>
      <point x="995" y="1095"/>
      <point x="764" y="1095" type="curve" smooth="yes"/>
      <point x="673" y="1095"/>
      <point x="585" y="1071"/>
      <point x="516" y="1036" type="curve"/>
      <point x="601" y="1516" type="line"/>
      <point x="328" y="1516" type="line"/>
    </contour>
    <contour>
      <point x="546" y="165" type="curve" smooth="yes"/>
      <point x="441" y="165"/>
      <point x="385" y="205"/>
      <point x="371" y="213" type="curve"/>
      <point x="482" y="841" type="line"/>
      <point x="519" y="872"/>
      <point x="597" y="906"/>
      <point x="685" y="906" type="curve" smooth="yes"/>
      <point x="785" y="906"/>
      <point x="846" y="871"/>
      <point x="846" y="789" type="curve" smooth="yes"/>
      <point x="846" y="778"/>
      <point x="845" y="767"/>
      <point x="843" y="755" type="curve" smooth="yes"/>
      <point x="766" y="320" type="line" smooth="yes"/>
      <point x="747" y="211"/>
      <point x="669" y="165"/>
    </contour>
  </outline>
</glyph>
<glyph name="lslash" format="1">
  <advance width="708"/>
  <unicode hex="0142"/>
  <outline>
    <contour>
      <point x="12" y="680" type="line"/>
      <point x="628" y="915" type="line"/>
      <point x="653" y="1059" type="line"/>
      <point x="38" y="823" type="line"/>
    </contour>
    <component base="l"/>
  </outline>
</glyph>
<glyph name="eng" format="1">
  <advance width="1254"/>
  <unicode hex="014B"/>
  <outline>
    <contour>
      <point x="424" y="-365" type="line"/>
      <point x="866" y="-365"/>
      <point x="1002" y="-202"/>
      <point x="1069" y="179" type="curve" smooth="yes"/>
      <point x="1177" y="794" type="line" smooth="yes"/>
      <point x="1180" y="814"/>
      <point x="1182" y="833"/>
      <point x="1182" y="851" type="curve" smooth="yes"/>
      <point x="1182" y="1000"/>
      <point x="1069" y="1097"/>
      <point x="885" y="1097" type="curve" smooth="yes"/>
      <point x="736" y="1097"/>
      <point x="596" y="1030"/>
      <point x="536" y="948" type="curve"/>
      <point x="558" y="1074" type="line"/>
      <point x="285" y="1074" type="line"/>
      <point x="95" y="0" type="line"/>
      <point x="368" y="0" type="line"/>
      <point x="502" y="758" type="line" smooth="yes"/>
      <point x="521" y="863"/>
      <point x="638" y="907"/>
      <point x="737" y="907" type="curve" smooth="yes"/>
      <point x="814" y="907"/>
      <point x="903" y="885"/>
      <point x="903" y="796" type="curve" smooth="yes"/>
      <point x="903" y="787"/>
      <point x="902" y="778"/>
      <point x="900" y="768" type="curve" smooth="yes"/>
      <point x="795" y="172" type="line" smooth="yes"/>
      <point x="740" y="-140"/>
      <point x="677" y="-153"/>
      <point x="430" y="-175" type="curve"/>
    </contour>
  </outline>
</glyph>
<glyph name="oe" format="1">
  <advance width="1780"/>
  <unicode hex="0153"/>
  <outline>
    <contour>
      <point x="485" y="-23" type="curve" smooth="yes"/>
      <point x="635" y="-23"/>
      <point x="744" y="22"/>
      <point x="826" y="90" type="curve"/>
      <point x="893" y="18"/>
      <point x="998" y="-23"/>
      <point x="1123" y="-23" type="curve" smooth="yes"/>
      <point x="1413" y="-23"/>
      <point x="1576" y="45"/>
      <point x="1638" y="357" type="curve"/>
      <point x="1384" y="357" type="line"/>
      <point x="1350" y="188"/>
      <point x="1284" y="166"/>
      <point x="1162" y="166" type="curve" smooth="yes"/>
      <point x="1062" y="166"/>
      <point x="1000" y="194"/>
      <point x="1000" y="280" type="curve" smooth="yes"/>
      <point x="1000" y="292"/>
      <point x="1001" y="306"/>
      <point x="1004" y="321" type="curve" smooth="yes"/>
      <point x="1038" y="512" type="line"/>
      <point x="1666" y="512" type="line"/>
      <point x="1707" y="745" type="line" smooth="yes"/>
      <point x="1712" y="774"/>
      <point x="1715" y="800"/>
      <point x="1715" y="826" type="curve" smooth="yes"/>
      <point x="1715" y="994"/>
      <point x="1602" y="1097"/>
      <point x="1319" y="1097" type="curve" smooth="yes"/>
      <point x="1188" y="1097"/>
      <point x="1073" y="1061"/>
      <point x="981" y="977" type="curve"/>
      <point x="917" y="1060"/>
      <point x="815" y="1097"/>
      <point x="683" y="1097" type="curve" smooth="yes"/>
      <point x="406" y="1097"/>
      <point x="200" y="970"/>
      <point x="161" y="749" type="curve" smooth="yes"/>
      <point x="87" y="326" type="line" smooth="yes"/>
      <point x="82" y="298"/>
      <point x="79" y="271"/>
      <point x="79" y="245" type="curve" smooth="yes"/>
      <point x="79" y="79"/>
      <point x="192" y="-23"/>
    </contour>
    <contour>
      <point x="519" y="166" type="curve" smooth="yes"/>
      <point x="412" y="166"/>
      <point x="354" y="195"/>
      <point x="354" y="275" type="curve" smooth="yes"/>
      <point x="354" y="287"/>
      <point x="355" y="300"/>
      <point x="358" y="314" type="curve" smooth="yes"/>
      <point x="437" y="762" type="line" smooth="yes"/>
      <point x="456" y="870"/>
      <point x="535" y="907"/>
      <point x="649" y="907" type="curve" smooth="yes"/>
      <point x="756" y="907"/>
      <point x="813" y="878"/>
      <point x="813" y="800" type="curve" smooth="yes"/>
      <point x="813" y="789"/>
      <point x="811" y="776"/>
      <point x="809" y="762" type="curve" smooth="yes"/>
      <point x="730" y="314" type="line" smooth="yes"/>
      <point x="710" y="205"/>
      <point x="633" y="166"/>
    </contour>
    <contour>
      <point x="1063" y="655" type="line"/>
      <point x="1081" y="760" type="line" smooth="yes"/>
      <point x="1101" y="874"/>
      <point x="1183" y="907"/>
      <point x="1292" y="907" type="curve" smooth="yes"/>
      <point x="1388" y="907"/>
      <point x="1457" y="889"/>
      <point x="1457" y="803" type="curve" smooth="yes"/>
      <point x="1457" y="792"/>
      <point x="1455" y="779"/>
      <point x="1453" y="765" type="curve" smooth="yes"/>
      <point x="1434" y="655" type="line"/>
    </contour>
  </outline>
</glyph>
<glyph name="uni02BC" format="1">
  <advance width="600"/>
  <unicode hex="02BC"/>
  <outline>
    <component base="comma" xOffset="-200" yOffset="1633"/>
    <contour>
      <point x="14" y="1074" type="move" name="_top"/>
    </contour>
  </outline>
</glyph>
<glyph name="circumflex" format="1">
  <advance width="512"/>
  <unicode hex="02C6"/>
  <outline>
    <contour>
      <point x="-95" y="1216" type="line"/>
      <point x="135" y="1216" type="line"/>
      <point x="266" y="1359" type="line"/>
      <point x="339" y="1216" type="line"/>
      <point x="564" y="1216" type="line"/>
      <point x="406" y="1514" type="line"/>
      <point x="181" y="1514" type="line"/>
    </contour>
    <contour>
      <point x="216" y="1074" type="move" name="_top"/>
    </contour>
  </outline>
</glyph>
<glyph name="firsttonechinese" format="1">
  <advance width="511"/>
  <unicode hex="02C9"/>
  <outline>
    <contour>
      <point x="-61" y="1251" type="line"/>
      <point x="543" y="1251" type="line"/>
      <point x="571" y="1408" type="line"/>
      <point x="-33" y="1408" type="line"/>
    </contour>
    <contour>
      <point x="258" y="1329" type="move" name="_mid"/>
    </contour>
    <contour>
      <point x="212" y="1074" type="move" name="_top"/>
    </contour>
  </outline>
</glyph>
<glyph name="ring" format="1">
  <advance width="592"/>
  <unicode hex="02DA"/>
  <outline>
    <contour>
      <point x="274" y="1271" type="curve" smooth="yes"/>
      <point x="216" y="1271"/>
      <point x="174" y="1290"/>
      <point x="174" y="1357" type="curve" smooth="yes"/>
      <point x="174" y="1368"/>
      <point x="176" y="1381"/>
      <point x="178" y="1395" type="curve" smooth="yes"/>
      <point x="195" y="1491"/>
      <point x="250" y="1518"/>
      <point x="317" y="1518" type="curve" smooth="yes"/>
      <point x="375" y="1518"/>
      <point x="418" y="1497"/>
      <point x="418" y="1430" type="curve" smooth="yes"/>
      <point x="418" y="1419"/>
      <point x="416" y="1407"/>
      <point x="414" y="1393" type="curve" smooth="yes"/>
      <point x="397" y="1297"/>
      <point x="341" y="1271"/>
    </contour>
    <contour>
      <point x="333" y="1606" type="curve" smooth="yes"/>
      <point x="179" y="1606"/>
      <point x="62" y="1513"/>
      <point x="62" y="1346" type="curve" smooth="yes"/>
      <point x="62" y="1240"/>
      <point x="134" y="1181"/>
      <point x="259" y="1181" type="curve" smooth="yes"/>
      <point x="412" y="1181"/>
      <point x="530" y="1275"/>
      <point x="530" y="1442" type="curve" smooth="yes"/>
      <point x="530" y="1548"/>
      <point x="457" y="1606"/>
    </contour>
    <contour>
      <point x="241" y="1074" type="move" name="_top"/>
    </contour>
  </outline>
</glyph>
<glyph name="tilde" format="1">
  <advance width="759"/>
  <unicode hex="02DC"/>
  <outline>
    <contour>
      <point x="245" y="1231" type="curve"/>
      <point x="398" y="1231"/>
      <point x="456" y="1334"/>
      <point x="510" y="1334" type="curve" smooth="yes"/>
      <point x="536" y="1334"/>
      <point x="553" y="1317"/>
      <point x="553" y="1279" type="curve" smooth="yes"/>
      <point x="553" y="1270"/>
      <point x="552" y="1259"/>
      <point x="550" y="1247" type="curve"/>
      <point x="668" y="1247" type="line"/>
      <point x="674" y="1279"/>
      <point x="676" y="1308"/>
      <point x="676" y="1334" type="curve" smooth="yes"/>
      <point x="676" y="1457"/>
      <point x="564" y="1454"/>
      <point x="514" y="1507" type="curve"/>
      <point x="360" y="1507"/>
      <point x="306" y="1405"/>
      <point x="256" y="1405" type="curve" smooth="yes"/>
      <point x="227" y="1405"/>
      <point x="206" y="1420"/>
      <point x="206" y="1461" type="curve" smooth="yes"/>
      <point x="206" y="1470"/>
      <point x="207" y="1480"/>
      <point x="209" y="1491" type="curve"/>
      <point x="91" y="1491" type="line"/>
      <point x="85" y="1459"/>
      <point x="83" y="1430"/>
      <point x="83" y="1404" type="curve" smooth="yes"/>
      <point x="83" y="1281"/>
      <point x="195" y="1284"/>
    </contour>
    <contour>
      <point x="334" y="1074" type="move" name="_top"/>
    </contour>
  </outline>
</glyph>
<glyph name="uni0307" format="1">
  <advance width="600"/>
  <unicode hex="0307"/>
  <outline>
    <contour>
      <point x="168" y="1327" type="line"/>
      <point x="361" y="1327" type="line"/>
      <point x="397" y="1535" type="line"/>
      <point x="204" y="1535" type="line"/>
    </contour>
    <contour>
      <point x="228" y="1060" type="move" name="_top"/>
    </contour>
  </outline>
</glyph>
<glyph name="uni030F" format="1">
  <advance width="1024"/>
  <unicode hex="030F"/>
  <outline>
    <contour>
      <point x="717" y="1157" type="line"/>
      <point x="866" y="1157" type="line"/>
      <point x="816" y="1522" type="line"/>
      <point x="548" y="1522" type="line"/>
    </contour>
    <contour>
      <point x="307" y="1157" type="line"/>
      <point x="456" y="1157" type="line"/>
      <point x="406" y="1522" type="line"/>
      <point x="138" y="1522" type="line"/>
    </contour>
    <contour>
      <point x="591" y="1074" type="move" name="_top"/>
    </contour>
  </outline>
</glyph>
<glyph name="uni0326" format="1">
  <advance width="600"/>
  <unicode hex="0326"/>
  <outline>
    <component base="comma" xOffset="-70" yOffset="-448"/>
    <contour>
      <point x="401" y="0" type="move" name="_bot"/>
    </contour>
  </outline>
</glyph>
<glyph name="uni0358" format="1">
  <advance width="600"/>
  <unicode hex="0358"/>
  <outline>
    <contour>
      <point x="181" y="1327" type="line"/>
      <point x="374" y="1327" type="line"/>
      <point x="410" y="1535" type="line"/>
      <point x="217" y="1535" type="line"/>
    </contour>
    <contour>
      <point x="241" y="1060" type="move" name="_top"/>
    </contour>
  </outline>
</glyph>
<glyph name="endash" format="1">
  <advance width="716"/>
  <unicode hex="2013"/>
  <outline>
    <contour>
      <point x="113" y="446" type="line"/>
      <point x="573" y="446" type="line"/>
      <point x="603" y="612" type="line"/>
      <point x="143" y="612" type="line"/>
    </contour>
  </outline>
</glyph>
<glyph name="uni2015" format="1">
  <advance width="4096"/>
  <unicode hex="2015"/>
  <outline>
    <contour>
      <point x="119" y="494" type="line"/>
      <point x="145" y="642" type="line"/>
      <point x="3977" y="642" type="line"/>
      <point x="3951" y="494" type="line"/>
    </contour>
  </outline>
</glyph>
<glyph name="quoteright" format="1">
  <advance width="834"/>
  <unicode hex="2019"/>
  <outline>
    <contour>
      <point x="323" y="839" type="line"/>
      <point x="395" y="895"/>
      <point x="562" y="1080"/>
      <point x="597" y="1281" type="curve"/>
      <point x="637" y="1504" type="line"/>
      <point x="315" y="1504" type="line"/>
      <point x="266" y="1228" type="line"/>
      <point x="431" y="1228" type="line"/>
      <point x="407" y="1090"/>
      <point x="286" y="943"/>
      <point x="224" y="885" type="curve"/>
    </contour>
  </outline>
</glyph>
<glyph name="quotedblbase" format="1">
  <advance width="1373"/>
  <unicode hex="201E"/>
  <outline>
    <contour>
      <point x="862" y="-389" type="line"/>
      <point x="934" y="-333"/>
      <point x="1101" y="-148"/>
      <point x="1136" y="53" type="curve"/>
      <point x="1176" y="276" type="line"/>
      <point x="854" y="276" type="line"/>
      <point x="805" y="0" type="line"/>
      <point x="970" y="0" type="line"/>
      <point x="946" y="-138"/>
      <point x="825" y="-285"/>
      <point x="763" y="-343" type="curve"/>
    </contour>
    <contour>
      <point x="363" y="-389" type="line"/>
      <point x="435" y="-333"/>
      <point x="602" y="-148"/>
      <point x="637" y="53" type="curve"/>
      <point x="677" y="276" type="line"/>
      <point x="355" y="276" type="line"/>
      <point x="306" y="0" type="line"/>
      <point x="471" y="0" type="line"/>
      <point x="447" y="-138"/>
      <point x="326" y="-285"/>
      <point x="264" y="-343" type="curve"/>
    </contour>
  </outline>
</glyph>
<glyph name="dagger" format="1">
  <advance width="1024"/>
  <unicode hex="2020"/>
  <outline>
    <contour>
      <point x="292" y="0" type="line"/>
      <point x="497" y="0" type="line"/>
      <point x="648" y="857" type="line"/>
      <point x="899" y="857" type="line"/>
      <point x="927" y="1013" type="line"/>
      <point x="676" y="1013" type="line"/>
      <point x="731" y="1324" type="line"/>
      <point x="526" y="1324" type="line"/>
      <point x="471" y="1013" type="line"/>
      <point x="221" y="1013" type="line"/>
      <point x="193" y="857" type="line"/>
      <point x="443" y="857" type="line"/>
    </contour>
  </outline>
</glyph>
<glyph name="daggerdbl" format="1">
  <advance width="1025"/>
  <unicode hex="2021"/>
  <outline>
    <contour>
      <point x="292" y="0" type="line"/>
      <point x="497" y="0" type="line"/>
      <point x="565" y="383" type="line"/>
      <point x="757" y="383" type="line"/>
      <point x="790" y="569" type="line"/>
      <point x="598" y="569" type="line"/>
      <point x="651" y="873" type="line"/>
      <point x="843" y="873" type="line"/>
      <point x="876" y="1059" type="line"/>
      <point x="684" y="1059" type="line"/>
      <point x="731" y="1324" type="line"/>
      <point x="526" y="1324" type="line"/>
      <point x="479" y="1059" type="line"/>
      <point x="289" y="1059" type="line"/>
      <point x="256" y="873" type="line"/>
      <point x="446" y="873" type="line"/>
      <point x="393" y="569" type="line"/>
      <point x="203" y="569" type="line"/>
      <point x="170" y="383" type="line"/>
      <point x="360" y="383" type="line"/>
    </contour>
  </outline>
</glyph>
<glyph name="bullet" format="1">
  <advance width="1024"/>
  <unicode hex="2022"/>
  <outline>
    <contour>
      <point x="455" y="390" type="curve"/>
      <point x="648" y="390"/>
      <point x="800" y="524"/>
      <point x="832" y="707" type="curve" smooth="yes"/>
      <point x="836" y="729"/>
      <point x="838" y="750"/>
      <point x="838" y="771" type="curve" smooth="yes"/>
      <point x="838" y="921"/>
      <point x="737" y="1025"/>
      <point x="568" y="1025" type="curve" smooth="yes"/>
      <point x="375" y="1025"/>
      <point x="224" y="891"/>
      <point x="192" y="707" type="curve" smooth="yes"/>
      <point x="188" y="684"/>
      <point x="186" y="662"/>
      <point x="186" y="641" type="curve" smooth="yes"/>
      <point x="186" y="492"/>
      <point x="287" y="390"/>
    </contour>
  </outline>
</glyph>
<glyph name="guilsinglleft" format="1">
  <advance width="768"/>
  <unicode hex="2039"/>
  <outline>
    <contour>
      <point x="375" y="80" type="line"/>
      <point x="527" y="150" type="line"/>
      <point x="387" y="530" type="line"/>
      <point x="661" y="910" type="line"/>
      <point x="526" y="980" type="line"/>
      <point x="174" y="530" type="line"/>
    </contour>
  </outline>
</glyph>
<glyph name="trademark" format="1">
  <advance width="1843"/>
  <unicode hex="2122"/>
  <outline>
    <contour>
      <point x="765" y="766" type="line"/>
      <point x="930" y="766" type="line"/>
      <point x="1013" y="1239" type="line"/>
      <point x="1118" y="931" type="line"/>
      <point x="1279" y="931" type="line"/>
      <point x="1485" y="1239" type="line"/>
      <point x="1402" y="766" type="line"/>
      <point x="1569" y="766" type="line"/>
      <point x="1689" y="1446" type="line"/>
      <point x="1473" y="1446" type="line"/>
      <point x="1226" y="1103" type="line"/>
      <point x="1103" y="1446" type="line"/>
      <point x="885" y="1446" type="line"/>
    </contour>
    <contour>
      <point x="255" y="766" type="line"/>
      <point x="450" y="766" type="line"/>
      <point x="545" y="1302" type="line"/>
      <point x="727" y="1302" type="line"/>
      <point x="752" y="1446" type="line"/>
      <point x="193" y="1446" type="line"/>
      <point x="168" y="1302" type="line"/>
      <point x="350" y="1302" type="line"/>
    </contour>
  </outline>
</glyph>
<glyph name="partialdiff" format="1">
  <advance width="1216"/>
  <unicode hex="2202"/>
  <outline>
    <contour>
      <point x="340" y="-20" type="curve" smooth="yes"/>
      <point x="733" y="-20"/>
      <point x="1045" y="387"/>
      <point x="1136" y="902" type="curve" smooth="yes"/>
      <point x="1146" y="957"/>
      <point x="1150" y="1009"/>
      <point x="1150" y="1056" type="curve" smooth="yes"/>
      <point x="1150" y="1353"/>
      <point x="968" y="1496"/>
      <point x="719" y="1496" type="curve" smooth="yes"/>
      <point x="591" y="1496"/>
      <point x="440" y="1454"/>
      <point x="321" y="1389" type="curve"/>
      <point x="344" y="1288" type="line"/>
      <point x="457" y="1343"/>
      <point x="533" y="1364"/>
      <point x="611" y="1364" type="curve" smooth="yes"/>
      <point x="754" y="1364"/>
      <point x="872" y="1275"/>
      <point x="872" y="1072" type="curve" smooth="yes"/>
      <point x="872" y="1037"/>
      <point x="868" y="999"/>
      <point x="861" y="958" type="curve" smooth="yes"/>
      <point x="857" y="934" type="line"/>
      <point x="392" y="906"/>
      <point x="82" y="573"/>
      <point x="36" y="310" type="curve" smooth="yes"/>
      <point x="32" y="287"/>
      <point x="30" y="265"/>
      <point x="30" y="243" type="curve" smooth="yes"/>
      <point x="30" y="98"/>
      <point x="122" y="-20"/>
    </contour>
    <contour>
      <point x="381" y="130" type="curve" smooth="yes"/>
      <point x="355" y="130"/>
      <point x="337" y="162"/>
      <point x="337" y="219" type="curve" smooth="yes"/>
      <point x="337" y="237"/>
      <point x="339" y="259"/>
      <point x="343" y="282" type="curve" smooth="yes"/>
      <point x="377" y="477"/>
      <point x="568" y="744"/>
      <point x="823" y="794" type="curve"/>
      <point x="752" y="529"/>
      <point x="568" y="130"/>
    </contour>
  </outline>
</glyph>
<glyph name="emptyset" format="1">
  <advance width="1552"/>
  <unicode hex="2205"/>
  <outline>
    <contour>
      <point x="696" y="206" type="curve" smooth="yes"/>
      <point x="456" y="206"/>
      <point x="303" y="365"/>
      <point x="303" y="590" type="curve" smooth="yes"/>
      <point x="303" y="620"/>
      <point x="306" y="650"/>
      <point x="311" y="682" type="curve" smooth="yes"/>
      <point x="359" y="952"/>
      <point x="592" y="1157"/>
      <point x="863" y="1157" type="curve" smooth="yes"/>
      <point x="1102" y="1157"/>
      <point x="1254" y="998"/>
      <point x="1254" y="776" type="curve" smooth="yes"/>
      <point x="1254" y="746"/>
      <point x="1251" y="714"/>
      <point x="1245" y="682" type="curve" smooth="yes"/>
      <point x="1198" y="410"/>
      <point x="968" y="206"/>
    </contour>
    <contour>
      <point x="669" y="66" type="curve" smooth="yes"/>
      <point x="1017" y="66"/>
      <point x="1332" y="331"/>
      <point x="1393" y="682" type="curve" smooth="yes"/>
      <point x="1400" y="721"/>
      <point x="1403" y="760"/>
      <point x="1403" y="797" type="curve" smooth="yes"/>
      <point x="1403" y="1088"/>
      <point x="1195" y="1296"/>
      <point x="886" y="1296" type="curve" smooth="yes"/>
      <point x="540" y="1296"/>
      <point x="223" y="1031"/>
      <point x="161" y="682" type="curve" smooth="yes"/>
      <point x="154" y="643"/>
      <point x="151" y="606"/>
      <point x="151" y="569" type="curve" smooth="yes"/>
      <point x="151" y="276"/>
      <point x="361" y="66"/>
    </contour>
    <contour>
      <point x="93" y="70" type="line"/>
      <point x="166" y="-6" type="line"/>
      <point x="1469" y="1277" type="line"/>
      <point x="1396" y="1353" type="line"/>
    </contour>
  </outline>
</glyph>
<glyph name="caron.alt" format="1">
  <advance width="600"/>
  <outline>
    <contour>
      <point x="649" y="1193" type="line"/>
      <point x="721" y="1250"/>
      <point x="887" y="1434"/>
      <point x="922" y="1635" type="curve"/>
      <point x="962" y="1858" type="line"/>
      <point x="641" y="1858" type="line"/>
      <point x="592" y="1582" type="line"/>
      <point x="757" y="1582" type="line"/>
      <point x="733" y="1444"/>
      <point x="612" y="1298"/>
      <point x="551" y="1240" type="curve"/>
    </contour>
    <contour>
      <point x="302" y="1074" type="move" name="_caron.alt"/>
    </contour>
  </outline>
</glyph>
